<svg xmlns="http://www.w3.org/2000/svg" xmlns:xlink="http://www.w3.org/1999/xlink" width="100" zoomAndPan="magnify" viewBox="0 0 75 74.999997" height="100" preserveAspectRatio="xMidYMid meet" version="1.0"><defs><g/><clipPath id="62881a9979"><path d="M 10.539062 3.792969 L 64.539062 3.792969 L 64.539062 57.792969 L 10.539062 57.792969 Z M 10.539062 3.792969 " clip-rule="nonzero"/></clipPath></defs><g clip-path="url(#62881a9979)"><path fill="#44d62c" d="M 37.539062 3.804688 L 41.113281 7.179688 L 45.519531 5.011719 L 47.941406 9.289062 L 52.789062 8.519531 L 53.847656 13.328125 L 58.707031 14.023438 L 58.304688 18.929688 L 62.742188 21.03125 L 60.914062 25.597656 L 64.539062 28.917969 L 61.449219 32.742188 L 63.933594 36.984375 L 59.859375 39.726562 L 60.984375 44.515625 L 56.285156 45.929688 L 55.953125 50.839844 L 51.046875 50.804688 L 49.285156 55.398438 L 44.605469 53.914062 L 41.574219 57.78125 L 37.539062 54.980469 L 33.503906 57.78125 L 30.46875 53.914062 L 25.789062 55.398438 L 24.03125 50.804688 L 19.121094 50.839844 L 18.792969 45.929688 L 14.089844 44.515625 L 15.21875 39.726562 L 11.140625 36.984375 L 13.628906 32.742188 L 10.539062 28.917969 L 14.160156 25.597656 L 12.335938 21.03125 L 16.773438 18.929688 L 16.371094 14.023438 L 21.230469 13.328125 L 22.285156 8.519531 L 27.132812 9.289062 L 29.558594 5.011719 L 33.964844 7.179688 Z M 37.539062 3.804688 " fill-opacity="1" fill-rule="evenodd"/></g><path fill="#ffffff" d="M 50.753906 40.484375 C 45.492188 47.375 35.5625 48.628906 28.59375 43.28125 C 27.695312 42.589844 26.871094 41.808594 26.136719 40.945312 L 19.363281 42.097656 C 19.070312 42.148438 18.78125 42.011719 18.632812 41.757812 C 18.480469 41.503906 18.503906 41.183594 18.6875 40.953125 C 18.6875 40.953125 23.066406 35.421875 23.066406 35.421875 C 21.496094 30.515625 22.40625 25.171875 25.511719 21.101562 C 30.777344 14.214844 40.707031 12.957031 47.675781 18.308594 C 54.644531 23.660156 56.019531 33.597656 50.753906 40.484375 Z M 49.628906 39.621094 C 54.417969 33.351562 53.152344 24.308594 46.8125 19.4375 C 40.46875 14.570312 31.429688 15.699219 26.640625 21.96875 C 23.742188 25.761719 22.953125 30.773438 24.53125 35.332031 C 24.613281 35.5625 24.570312 35.816406 24.417969 36.007812 L 20.953125 40.382812 L 26.300781 39.472656 C 26.554688 39.429688 26.8125 39.527344 26.972656 39.726562 C 27.703125 40.628906 28.535156 41.441406 29.457031 42.148438 C 35.796875 47.019531 44.835938 45.886719 49.628906 39.621094 Z M 49.628906 39.621094 " fill-opacity="1" fill-rule="evenodd"/><path fill="#ffffff" d="M 37.261719 31.554688 C 38.445312 32.871094 40.359375 34.472656 41.925781 34.746094 C 43.15625 33.703125 43.359375 32.695312 44.511719 33.171875 C 45.566406 33.609375 47.402344 36.085938 47.050781 37.179688 C 46.699219 38.269531 43.925781 40.375 42.0625 39.933594 C 38.597656 39.113281 34.667969 34.398438 34.242188 33.902344 C 33.707031 33.277344 30.019531 28.855469 29.972656 25.582031 C 29.945312 23.765625 32.722656 21.675781 33.921875 21.597656 C 35.125 21.515625 37.15625 24.007812 37.179688 25.097656 C 37.199219 26.191406 36.492188 26.296875 34.832031 26.851562 C 34.925781 28.675781 36.082031 30.238281 37.261719 31.554688 Z M 37.261719 31.554688 " fill-opacity="1" fill-rule="evenodd"/><g fill="#5ce1e6" fill-opacity="0.302"><g transform="translate(9.809237, 66.971157)"><g><path d="M 5.074219 -1.859375 C 4.886719 -1.6875 4.695312 -1.566406 4.496094 -1.488281 C 4.300781 -1.402344 4.066406 -1.367188 3.800781 -1.367188 C 3.515625 -1.367188 3.269531 -1.410156 3.0625 -1.496094 C 2.847656 -1.582031 2.664062 -1.695312 2.527344 -1.847656 C 2.382812 -2.003906 2.269531 -2.175781 2.203125 -2.382812 C 2.132812 -2.589844 2.097656 -2.8125 2.097656 -3.054688 C 2.097656 -3.285156 2.132812 -3.507812 2.203125 -3.714844 C 2.269531 -3.921875 2.382812 -4.09375 2.527344 -4.25 C 2.664062 -4.402344 2.847656 -4.523438 3.0625 -4.609375 C 3.269531 -4.695312 3.515625 -4.738281 3.800781 -4.738281 C 4.007812 -4.738281 4.214844 -4.703125 4.421875 -4.644531 C 4.625 -4.574219 4.816406 -4.472656 4.972656 -4.335938 C 4.988281 -4.316406 5.003906 -4.308594 5.023438 -4.292969 L 5.074219 -4.238281 C 5.132812 -4.179688 5.203125 -4.128906 5.289062 -4.085938 C 5.367188 -4.042969 5.46875 -4.023438 5.597656 -4.023438 C 5.71875 -4.023438 5.820312 -4.042969 5.910156 -4.085938 C 5.996094 -4.128906 6.070312 -4.179688 6.140625 -4.25 C 6.199219 -4.308594 6.242188 -4.378906 6.277344 -4.464844 C 6.3125 -4.550781 6.328125 -4.625 6.328125 -4.703125 C 6.328125 -4.867188 6.269531 -5.023438 6.148438 -5.160156 C 6.011719 -5.316406 5.847656 -5.453125 5.660156 -5.574219 C 5.46875 -5.691406 5.28125 -5.789062 5.074219 -5.863281 C 4.867188 -5.941406 4.652344 -6.003906 4.4375 -6.039062 C 4.214844 -6.070312 4.007812 -6.097656 3.800781 -6.097656 C 3.355469 -6.097656 2.933594 -6.019531 2.546875 -5.875 C 2.160156 -5.726562 1.824219 -5.519531 1.546875 -5.253906 C 1.265625 -4.988281 1.039062 -4.667969 0.886719 -4.300781 C 0.722656 -3.921875 0.644531 -3.507812 0.644531 -3.054688 C 0.644531 -2.589844 0.722656 -2.175781 0.886719 -1.796875 C 1.039062 -1.417969 1.265625 -1.101562 1.546875 -0.835938 C 1.824219 -0.566406 2.160156 -0.359375 2.546875 -0.214844 C 2.933594 -0.0703125 3.355469 0 3.800781 0 C 4.179688 0 4.539062 -0.0507812 4.894531 -0.164062 C 5.246094 -0.273438 5.5625 -0.445312 5.847656 -0.671875 C 5.96875 -0.757812 6.070312 -0.859375 6.175781 -0.972656 C 6.277344 -1.082031 6.328125 -1.222656 6.328125 -1.394531 C 6.328125 -1.46875 6.3125 -1.546875 6.277344 -1.632812 C 6.242188 -1.710938 6.199219 -1.78125 6.140625 -1.847656 C 6.070312 -1.910156 5.996094 -1.960938 5.910156 -2.003906 C 5.820312 -2.046875 5.71875 -2.074219 5.597656 -2.074219 C 5.46875 -2.074219 5.367188 -2.046875 5.289062 -2.003906 C 5.203125 -1.960938 5.132812 -1.910156 5.074219 -1.859375 Z M 5.074219 -1.859375 "/></g></g></g><g fill="#5ce1e6" fill-opacity="0.302"><g transform="translate(16.792511, 66.971157)"><g><path d="M 3.800781 0 C 4.25 0 4.660156 -0.0703125 5.046875 -0.214844 C 5.425781 -0.359375 5.761719 -0.566406 6.046875 -0.835938 C 6.320312 -1.101562 6.542969 -1.417969 6.707031 -1.796875 C 6.863281 -2.175781 6.949219 -2.589844 6.949219 -3.054688 C 6.949219 -3.507812 6.863281 -3.921875 6.707031 -4.300781 C 6.542969 -4.667969 6.320312 -4.988281 6.046875 -5.253906 C 5.761719 -5.519531 5.425781 -5.726562 5.046875 -5.875 C 4.660156 -6.019531 4.25 -6.097656 3.800781 -6.097656 C 3.355469 -6.097656 2.933594 -6.019531 2.546875 -5.875 C 2.160156 -5.726562 1.824219 -5.519531 1.546875 -5.253906 C 1.265625 -4.988281 1.039062 -4.667969 0.886719 -4.300781 C 0.722656 -3.921875 0.644531 -3.507812 0.644531 -3.054688 C 0.644531 -2.589844 0.722656 -2.175781 0.886719 -1.796875 C 1.039062 -1.417969 1.265625 -1.101562 1.546875 -0.835938 C 1.824219 -0.566406 2.160156 -0.359375 2.546875 -0.214844 C 2.933594 -0.0703125 3.355469 0 3.800781 0 Z M 5.496094 -3.054688 C 5.496094 -2.8125 5.453125 -2.589844 5.382812 -2.382812 C 5.316406 -2.175781 5.203125 -2.003906 5.066406 -1.847656 C 4.929688 -1.695312 4.746094 -1.582031 4.539062 -1.496094 C 4.324219 -1.410156 4.078125 -1.367188 3.800781 -1.367188 C 3.515625 -1.367188 3.269531 -1.410156 3.0625 -1.496094 C 2.847656 -1.582031 2.664062 -1.695312 2.527344 -1.847656 C 2.382812 -2.003906 2.269531 -2.175781 2.203125 -2.382812 C 2.132812 -2.589844 2.097656 -2.8125 2.097656 -3.054688 C 2.097656 -3.285156 2.132812 -3.507812 2.203125 -3.714844 C 2.269531 -3.921875 2.382812 -4.09375 2.527344 -4.25 C 2.664062 -4.402344 2.847656 -4.523438 3.0625 -4.609375 C 3.269531 -4.695312 3.515625 -4.738281 3.800781 -4.738281 C 4.078125 -4.738281 4.324219 -4.695312 4.539062 -4.609375 C 4.746094 -4.523438 4.929688 -4.402344 5.066406 -4.25 C 5.203125 -4.09375 5.316406 -3.921875 5.382812 -3.714844 C 5.453125 -3.507812 5.496094 -3.285156 5.496094 -3.054688 Z M 5.496094 -3.054688 "/></g></g></g><g fill="#5ce1e6" fill-opacity="0.302"><g transform="translate(24.386391, 66.971157)"><g><path d="M 2.082031 -3.613281 L 3.226562 -2.425781 C 3.269531 -2.375 3.320312 -2.339844 3.386719 -2.304688 C 3.457031 -2.269531 3.527344 -2.253906 3.613281 -2.253906 C 3.699219 -2.253906 3.765625 -2.269531 3.835938 -2.304688 C 3.90625 -2.339844 3.957031 -2.375 4.007812 -2.425781 L 5.152344 -3.613281 L 5.152344 -0.664062 C 5.152344 -0.585938 5.160156 -0.507812 5.195312 -0.429688 C 5.230469 -0.34375 5.273438 -0.273438 5.332031 -0.207031 C 5.390625 -0.136719 5.46875 -0.078125 5.554688 -0.0351562 C 5.640625 0.0078125 5.753906 0.0273438 5.875 0.0273438 C 5.996094 0.0273438 6.097656 0.0078125 6.183594 -0.0351562 C 6.269531 -0.078125 6.347656 -0.128906 6.40625 -0.199219 C 6.46875 -0.265625 6.511719 -0.335938 6.542969 -0.421875 C 6.578125 -0.5 6.597656 -0.578125 6.597656 -0.652344 L 6.597656 -5.390625 C 6.597656 -5.46875 6.578125 -5.546875 6.542969 -5.625 C 6.511719 -5.703125 6.46875 -5.769531 6.40625 -5.839844 C 6.339844 -5.910156 6.261719 -5.960938 6.175781 -6.003906 C 6.089844 -6.039062 5.984375 -6.0625 5.863281 -6.0625 C 5.753906 -6.0625 5.648438 -6.039062 5.554688 -6.003906 C 5.460938 -5.960938 5.382812 -5.910156 5.324219 -5.847656 L 3.59375 -4.042969 L 1.910156 -5.863281 C 1.773438 -6.011719 1.589844 -6.089844 1.367188 -6.089844 C 1.246094 -6.089844 1.136719 -6.0625 1.050781 -6.019531 C 0.964844 -5.976562 0.886719 -5.925781 0.824219 -5.855469 C 0.757812 -5.789062 0.714844 -5.71875 0.679688 -5.640625 C 0.644531 -5.554688 0.636719 -5.476562 0.636719 -5.410156 L 0.636719 -0.671875 C 0.636719 -0.59375 0.644531 -0.515625 0.679688 -0.4375 C 0.714844 -0.351562 0.757812 -0.285156 0.816406 -0.214844 C 0.878906 -0.144531 0.953125 -0.0859375 1.039062 -0.0429688 C 1.125 0 1.238281 0.015625 1.359375 0.015625 C 1.480469 0.015625 1.582031 0 1.675781 -0.0429688 C 1.761719 -0.0859375 1.839844 -0.136719 1.902344 -0.207031 C 1.960938 -0.273438 2.003906 -0.34375 2.039062 -0.429688 C 2.0625 -0.507812 2.082031 -0.585938 2.082031 -0.664062 Z M 2.082031 -3.613281 "/></g></g></g><g fill="#5ce1e6" fill-opacity="0.302"><g transform="translate(31.66207, 66.971157)"><g><path d="M 2.082031 -3.613281 L 3.226562 -2.425781 C 3.269531 -2.375 3.320312 -2.339844 3.386719 -2.304688 C 3.457031 -2.269531 3.527344 -2.253906 3.613281 -2.253906 C 3.699219 -2.253906 3.765625 -2.269531 3.835938 -2.304688 C 3.90625 -2.339844 3.957031 -2.375 4.007812 -2.425781 L 5.152344 -3.613281 L 5.152344 -0.664062 C 5.152344 -0.585938 5.160156 -0.507812 5.195312 -0.429688 C 5.230469 -0.34375 5.273438 -0.273438 5.332031 -0.207031 C 5.390625 -0.136719 5.46875 -0.078125 5.554688 -0.0351562 C 5.640625 0.0078125 5.753906 0.0273438 5.875 0.0273438 C 5.996094 0.0273438 6.097656 0.0078125 6.183594 -0.0351562 C 6.269531 -0.078125 6.347656 -0.128906 6.40625 -0.199219 C 6.46875 -0.265625 6.511719 -0.335938 6.542969 -0.421875 C 6.578125 -0.5 6.597656 -0.578125 6.597656 -0.652344 L 6.597656 -5.390625 C 6.597656 -5.46875 6.578125 -5.546875 6.542969 -5.625 C 6.511719 -5.703125 6.46875 -5.769531 6.40625 -5.839844 C 6.339844 -5.910156 6.261719 -5.960938 6.175781 -6.003906 C 6.089844 -6.039062 5.984375 -6.0625 5.863281 -6.0625 C 5.753906 -6.0625 5.648438 -6.039062 5.554688 -6.003906 C 5.460938 -5.960938 5.382812 -5.910156 5.324219 -5.847656 L 3.59375 -4.042969 L 1.910156 -5.863281 C 1.773438 -6.011719 1.589844 -6.089844 1.367188 -6.089844 C 1.246094 -6.089844 1.136719 -6.0625 1.050781 -6.019531 C 0.964844 -5.976562 0.886719 -5.925781 0.824219 -5.855469 C 0.757812 -5.789062 0.714844 -5.71875 0.679688 -5.640625 C 0.644531 -5.554688 0.636719 -5.476562 0.636719 -5.410156 L 0.636719 -0.671875 C 0.636719 -0.59375 0.644531 -0.515625 0.679688 -0.4375 C 0.714844 -0.351562 0.757812 -0.285156 0.816406 -0.214844 C 0.878906 -0.144531 0.953125 -0.0859375 1.039062 -0.0429688 C 1.125 0 1.238281 0.015625 1.359375 0.015625 C 1.480469 0.015625 1.582031 0 1.675781 -0.0429688 C 1.761719 -0.0859375 1.839844 -0.136719 1.902344 -0.207031 C 1.960938 -0.273438 2.003906 -0.34375 2.039062 -0.429688 C 2.0625 -0.507812 2.082031 -0.585938 2.082031 -0.664062 Z M 2.082031 -3.613281 "/></g></g></g><g fill="#5ce1e6" fill-opacity="0.302"><g transform="translate(38.937748, 66.971157)"><g><path d="M 4.207031 -5.402344 L 4.222656 -2.289062 C 4.222656 -2.167969 4.195312 -2.046875 4.152344 -1.933594 C 4.109375 -1.824219 4.050781 -1.730469 3.964844 -1.644531 C 3.878906 -1.554688 3.785156 -1.496094 3.671875 -1.445312 C 3.558594 -1.394531 3.441406 -1.367188 3.3125 -1.367188 L 3.019531 -1.367188 C 2.882812 -1.367188 2.761719 -1.394531 2.648438 -1.445312 C 2.535156 -1.496094 2.441406 -1.554688 2.355469 -1.644531 C 2.269531 -1.730469 2.210938 -1.824219 2.167969 -1.933594 C 2.117188 -2.046875 2.097656 -2.167969 2.097656 -2.289062 L 2.097656 -5.417969 C 2.097656 -5.496094 2.082031 -5.574219 2.046875 -5.660156 C 2.011719 -5.734375 1.96875 -5.804688 1.910156 -5.875 C 1.839844 -5.933594 1.761719 -5.984375 1.675781 -6.027344 C 1.589844 -6.070312 1.488281 -6.097656 1.367188 -6.097656 C 1.246094 -6.097656 1.136719 -6.070312 1.050781 -6.027344 C 0.964844 -5.984375 0.886719 -5.933594 0.824219 -5.863281 C 0.757812 -5.796875 0.714844 -5.726562 0.679688 -5.648438 C 0.644531 -5.5625 0.636719 -5.488281 0.636719 -5.410156 L 0.636719 -2.277344 C 0.636719 -2.003906 0.6875 -1.738281 0.800781 -1.460938 C 0.902344 -1.1875 1.058594 -0.945312 1.265625 -0.730469 C 1.46875 -0.507812 1.71875 -0.335938 2.011719 -0.199219 C 2.304688 -0.0585938 2.632812 0.0078125 3.011719 0.0078125 L 3.300781 0.0078125 C 3.671875 0.0078125 4.007812 -0.0585938 4.300781 -0.199219 C 4.59375 -0.335938 4.832031 -0.507812 5.039062 -0.730469 C 5.238281 -0.945312 5.390625 -1.1875 5.503906 -1.460938 C 5.605469 -1.738281 5.667969 -2.003906 5.667969 -2.277344 L 5.667969 -5.410156 C 5.667969 -5.488281 5.648438 -5.5625 5.617188 -5.648438 C 5.582031 -5.726562 5.539062 -5.796875 5.476562 -5.863281 C 5.410156 -5.925781 5.332031 -5.976562 5.246094 -6.019531 C 5.160156 -6.0625 5.058594 -6.089844 4.9375 -6.089844 C 4.816406 -6.089844 4.703125 -6.0625 4.617188 -6.019531 C 4.53125 -5.976562 4.453125 -5.925781 4.394531 -5.855469 C 4.324219 -5.789062 4.28125 -5.71875 4.25 -5.640625 C 4.214844 -5.554688 4.207031 -5.476562 4.207031 -5.402344 Z M 4.207031 -5.402344 "/></g></g></g><g fill="#5ce1e6" fill-opacity="0.302"><g transform="translate(45.267418, 66.971157)"><g><path d="M 2.082031 -3.492188 L 4.886719 -0.25 C 4.945312 -0.171875 5.023438 -0.113281 5.125 -0.0585938 C 5.21875 -0.0078125 5.332031 0.0078125 5.453125 0.0078125 C 5.574219 0.0078125 5.675781 -0.0078125 5.761719 -0.0507812 C 5.847656 -0.09375 5.925781 -0.144531 5.984375 -0.214844 C 6.046875 -0.285156 6.089844 -0.351562 6.125 -0.4375 C 6.15625 -0.515625 6.175781 -0.59375 6.175781 -0.671875 L 6.175781 -5.410156 C 6.175781 -5.476562 6.15625 -5.554688 6.125 -5.640625 C 6.089844 -5.71875 6.046875 -5.789062 5.984375 -5.855469 C 5.917969 -5.917969 5.839844 -5.96875 5.753906 -6.011719 C 5.667969 -6.054688 5.5625 -6.082031 5.445312 -6.082031 C 5.324219 -6.082031 5.210938 -6.054688 5.125 -6.011719 C 5.039062 -5.96875 4.960938 -5.917969 4.902344 -5.847656 C 4.832031 -5.777344 4.789062 -5.710938 4.753906 -5.632812 C 4.722656 -5.546875 4.710938 -5.46875 4.710938 -5.402344 L 4.710938 -2.632812 L 1.933594 -5.847656 C 1.867188 -5.917969 1.789062 -5.96875 1.695312 -6.019531 C 1.589844 -6.070312 1.488281 -6.097656 1.367188 -6.097656 C 1.246094 -6.097656 1.136719 -6.070312 1.050781 -6.027344 C 0.964844 -5.984375 0.886719 -5.933594 0.824219 -5.863281 C 0.757812 -5.796875 0.714844 -5.726562 0.679688 -5.648438 C 0.644531 -5.5625 0.636719 -5.488281 0.636719 -5.410156 L 0.636719 -0.679688 C 0.636719 -0.601562 0.644531 -0.523438 0.679688 -0.445312 C 0.714844 -0.359375 0.757812 -0.292969 0.816406 -0.222656 C 0.878906 -0.15625 0.953125 -0.09375 1.039062 -0.0507812 C 1.125 -0.0078125 1.238281 0.0078125 1.359375 0.0078125 C 1.480469 0.0078125 1.582031 -0.0078125 1.675781 -0.0507812 C 1.761719 -0.09375 1.839844 -0.144531 1.902344 -0.214844 C 1.960938 -0.285156 2.003906 -0.351562 2.039062 -0.4375 C 2.0625 -0.515625 2.082031 -0.59375 2.082031 -0.671875 Z M 2.082031 -3.492188 "/></g></g></g><g fill="#5ce1e6" fill-opacity="0.302"><g transform="translate(52.104495, 66.971157)"><g><path d="M 0.628906 -0.671875 C 0.628906 -0.585938 0.644531 -0.507812 0.679688 -0.429688 C 0.714844 -0.34375 0.757812 -0.273438 0.824219 -0.214844 C 0.886719 -0.144531 0.964844 -0.09375 1.058594 -0.0585938 C 1.144531 -0.015625 1.246094 0 1.367188 0 C 1.488281 0 1.589844 -0.015625 1.6875 -0.0585938 C 1.773438 -0.101562 1.847656 -0.15625 1.910156 -0.222656 C 1.96875 -0.292969 2.011719 -0.359375 2.046875 -0.445312 C 2.074219 -0.523438 2.089844 -0.601562 2.089844 -0.679688 L 2.089844 -5.410156 C 2.089844 -5.488281 2.074219 -5.5625 2.039062 -5.648438 C 2.003906 -5.726562 1.960938 -5.796875 1.902344 -5.863281 C 1.832031 -5.925781 1.753906 -5.976562 1.667969 -6.019531 C 1.582031 -6.0625 1.480469 -6.089844 1.359375 -6.089844 C 1.238281 -6.089844 1.125 -6.0625 1.039062 -6.019531 C 0.953125 -5.976562 0.878906 -5.925781 0.816406 -5.855469 C 0.75 -5.789062 0.707031 -5.71875 0.671875 -5.640625 C 0.636719 -5.554688 0.628906 -5.476562 0.628906 -5.410156 Z M 0.628906 -0.671875 "/></g></g></g><g fill="#5ce1e6" fill-opacity="0.302"><g transform="translate(54.84793, 66.971157)"><g><path d="M 1.359375 -6.082031 C 1.238281 -6.082031 1.125 -6.054688 1.039062 -6.011719 C 0.953125 -5.96875 0.878906 -5.917969 0.816406 -5.847656 C 0.75 -5.777344 0.707031 -5.710938 0.671875 -5.632812 C 0.636719 -5.546875 0.628906 -5.46875 0.628906 -5.402344 C 0.628906 -5.316406 0.644531 -5.230469 0.679688 -5.152344 C 0.714844 -5.074219 0.757812 -5.003906 0.824219 -4.945312 C 0.886719 -4.875 0.964844 -4.824219 1.058594 -4.789062 C 1.144531 -4.753906 1.246094 -4.738281 1.367188 -4.738281 L 2.363281 -4.738281 C 2.382812 -4.738281 2.40625 -4.722656 2.433594 -4.703125 C 2.460938 -4.679688 2.476562 -4.644531 2.476562 -4.601562 L 2.476562 -0.679688 C 2.476562 -0.601562 2.484375 -0.523438 2.519531 -0.445312 C 2.554688 -0.359375 2.597656 -0.292969 2.65625 -0.222656 C 2.71875 -0.15625 2.796875 -0.09375 2.882812 -0.0507812 C 2.96875 -0.0078125 3.078125 0.0078125 3.199219 0.0078125 C 3.320312 0.0078125 3.421875 -0.0078125 3.515625 -0.0507812 C 3.601562 -0.09375 3.679688 -0.144531 3.742188 -0.214844 C 3.800781 -0.285156 3.84375 -0.351562 3.878906 -0.4375 C 3.90625 -0.515625 3.921875 -0.59375 3.921875 -0.671875 L 3.921875 -4.59375 C 3.921875 -4.636719 3.929688 -4.667969 3.964844 -4.695312 C 3.992188 -4.710938 4.015625 -4.730469 4.035156 -4.730469 L 5.03125 -4.730469 C 5.152344 -4.730469 5.253906 -4.746094 5.347656 -4.789062 C 5.433594 -4.832031 5.511719 -4.886719 5.574219 -4.953125 C 5.632812 -5.015625 5.675781 -5.082031 5.710938 -5.167969 C 5.734375 -5.253906 5.753906 -5.332031 5.753906 -5.410156 C 5.753906 -5.476562 5.734375 -5.554688 5.703125 -5.640625 C 5.667969 -5.71875 5.625 -5.789062 5.5625 -5.855469 C 5.496094 -5.917969 5.417969 -5.96875 5.332031 -6.011719 C 5.246094 -6.054688 5.144531 -6.082031 5.023438 -6.082031 Z M 1.359375 -6.082031 "/></g></g></g><g fill="#5ce1e6" fill-opacity="0.302"><g transform="translate(61.263597, 66.971157)"><g><path d="M 3.070312 -4.058594 L 2.003906 -5.769531 C 1.933594 -5.855469 1.847656 -5.933594 1.746094 -6.003906 C 1.644531 -6.0625 1.511719 -6.097656 1.375 -6.097656 C 1.253906 -6.097656 1.144531 -6.070312 1.058594 -6.027344 C 0.972656 -5.984375 0.894531 -5.933594 0.835938 -5.863281 C 0.773438 -5.796875 0.730469 -5.726562 0.695312 -5.648438 C 0.664062 -5.5625 0.652344 -5.488281 0.652344 -5.417969 C 0.652344 -5.296875 0.6875 -5.175781 0.757812 -5.066406 L 2.3125 -2.578125 C 2.332031 -2.5625 2.339844 -2.535156 2.339844 -2.503906 L 2.339844 -0.679688 C 2.339844 -0.601562 2.347656 -0.523438 2.382812 -0.445312 C 2.417969 -0.359375 2.460938 -0.292969 2.519531 -0.222656 C 2.578125 -0.15625 2.65625 -0.09375 2.753906 -0.0507812 C 2.839844 -0.0078125 2.949219 0.0078125 3.070312 0.0078125 C 3.191406 0.0078125 3.292969 -0.0078125 3.378906 -0.0507812 C 3.464844 -0.09375 3.542969 -0.144531 3.601562 -0.214844 C 3.664062 -0.285156 3.707031 -0.351562 3.742188 -0.4375 C 3.777344 -0.515625 3.792969 -0.59375 3.792969 -0.671875 L 3.792969 -2.492188 C 3.792969 -2.527344 3.800781 -2.554688 3.820312 -2.570312 L 5.375 -5.058594 C 5.445312 -5.167969 5.476562 -5.289062 5.476562 -5.410156 C 5.476562 -5.476562 5.460938 -5.554688 5.433594 -5.640625 C 5.402344 -5.71875 5.359375 -5.789062 5.296875 -5.855469 C 5.238281 -5.925781 5.160156 -5.976562 5.074219 -6.019531 C 4.980469 -6.0625 4.875 -6.089844 4.753906 -6.089844 C 4.609375 -6.089844 4.480469 -6.054688 4.378906 -5.996094 C 4.273438 -5.925781 4.1875 -5.847656 4.136719 -5.761719 Z M 3.070312 -4.058594 "/></g></g></g><g fill="#5ce1e6" fill-opacity="0.502"><g transform="translate(9.483268, 67.040445)"><g><path d="M 5.074219 -1.859375 C 4.886719 -1.6875 4.695312 -1.566406 4.496094 -1.488281 C 4.300781 -1.402344 4.066406 -1.367188 3.800781 -1.367188 C 3.515625 -1.367188 3.269531 -1.410156 3.0625 -1.496094 C 2.847656 -1.582031 2.664062 -1.695312 2.527344 -1.847656 C 2.382812 -2.003906 2.269531 -2.175781 2.203125 -2.382812 C 2.132812 -2.589844 2.097656 -2.8125 2.097656 -3.054688 C 2.097656 -3.285156 2.132812 -3.507812 2.203125 -3.714844 C 2.269531 -3.921875 2.382812 -4.09375 2.527344 -4.25 C 2.664062 -4.402344 2.847656 -4.523438 3.0625 -4.609375 C 3.269531 -4.695312 3.515625 -4.738281 3.800781 -4.738281 C 4.007812 -4.738281 4.214844 -4.703125 4.421875 -4.644531 C 4.625 -4.574219 4.816406 -4.472656 4.972656 -4.335938 C 4.988281 -4.316406 5.003906 -4.308594 5.023438 -4.292969 L 5.074219 -4.238281 C 5.132812 -4.179688 5.203125 -4.128906 5.289062 -4.085938 C 5.367188 -4.042969 5.46875 -4.023438 5.597656 -4.023438 C 5.71875 -4.023438 5.820312 -4.042969 5.910156 -4.085938 C 5.996094 -4.128906 6.070312 -4.179688 6.140625 -4.25 C 6.199219 -4.308594 6.242188 -4.378906 6.277344 -4.464844 C 6.3125 -4.550781 6.328125 -4.625 6.328125 -4.703125 C 6.328125 -4.867188 6.269531 -5.023438 6.148438 -5.160156 C 6.011719 -5.316406 5.847656 -5.453125 5.660156 -5.574219 C 5.46875 -5.691406 5.28125 -5.789062 5.074219 -5.863281 C 4.867188 -5.941406 4.652344 -6.003906 4.4375 -6.039062 C 4.214844 -6.070312 4.007812 -6.097656 3.800781 -6.097656 C 3.355469 -6.097656 2.933594 -6.019531 2.546875 -5.875 C 2.160156 -5.726562 1.824219 -5.519531 1.546875 -5.253906 C 1.265625 -4.988281 1.039062 -4.667969 0.886719 -4.300781 C 0.722656 -3.921875 0.644531 -3.507812 0.644531 -3.054688 C 0.644531 -2.589844 0.722656 -2.175781 0.886719 -1.796875 C 1.039062 -1.417969 1.265625 -1.101562 1.546875 -0.835938 C 1.824219 -0.566406 2.160156 -0.359375 2.546875 -0.214844 C 2.933594 -0.0703125 3.355469 0 3.800781 0 C 4.179688 0 4.539062 -0.0507812 4.894531 -0.164062 C 5.246094 -0.273438 5.5625 -0.445312 5.847656 -0.671875 C 5.96875 -0.757812 6.070312 -0.859375 6.175781 -0.972656 C 6.277344 -1.082031 6.328125 -1.222656 6.328125 -1.394531 C 6.328125 -1.46875 6.3125 -1.546875 6.277344 -1.632812 C 6.242188 -1.710938 6.199219 -1.78125 6.140625 -1.847656 C 6.070312 -1.910156 5.996094 -1.960938 5.910156 -2.003906 C 5.820312 -2.046875 5.71875 -2.074219 5.597656 -2.074219 C 5.46875 -2.074219 5.367188 -2.046875 5.289062 -2.003906 C 5.203125 -1.960938 5.132812 -1.910156 5.074219 -1.859375 Z M 5.074219 -1.859375 "/></g></g></g><g fill="#5ce1e6" fill-opacity="0.502"><g transform="translate(16.466542, 67.040445)"><g><path d="M 3.800781 0 C 4.25 0 4.660156 -0.0703125 5.046875 -0.214844 C 5.425781 -0.359375 5.761719 -0.566406 6.046875 -0.835938 C 6.320312 -1.101562 6.542969 -1.417969 6.707031 -1.796875 C 6.863281 -2.175781 6.949219 -2.589844 6.949219 -3.054688 C 6.949219 -3.507812 6.863281 -3.921875 6.707031 -4.300781 C 6.542969 -4.667969 6.320312 -4.988281 6.046875 -5.253906 C 5.761719 -5.519531 5.425781 -5.726562 5.046875 -5.875 C 4.660156 -6.019531 4.25 -6.097656 3.800781 -6.097656 C 3.355469 -6.097656 2.933594 -6.019531 2.546875 -5.875 C 2.160156 -5.726562 1.824219 -5.519531 1.546875 -5.253906 C 1.265625 -4.988281 1.039062 -4.667969 0.886719 -4.300781 C 0.722656 -3.921875 0.644531 -3.507812 0.644531 -3.054688 C 0.644531 -2.589844 0.722656 -2.175781 0.886719 -1.796875 C 1.039062 -1.417969 1.265625 -1.101562 1.546875 -0.835938 C 1.824219 -0.566406 2.160156 -0.359375 2.546875 -0.214844 C 2.933594 -0.0703125 3.355469 0 3.800781 0 Z M 5.496094 -3.054688 C 5.496094 -2.8125 5.453125 -2.589844 5.382812 -2.382812 C 5.316406 -2.175781 5.203125 -2.003906 5.066406 -1.847656 C 4.929688 -1.695312 4.746094 -1.582031 4.539062 -1.496094 C 4.324219 -1.410156 4.078125 -1.367188 3.800781 -1.367188 C 3.515625 -1.367188 3.269531 -1.410156 3.0625 -1.496094 C 2.847656 -1.582031 2.664062 -1.695312 2.527344 -1.847656 C 2.382812 -2.003906 2.269531 -2.175781 2.203125 -2.382812 C 2.132812 -2.589844 2.097656 -2.8125 2.097656 -3.054688 C 2.097656 -3.285156 2.132812 -3.507812 2.203125 -3.714844 C 2.269531 -3.921875 2.382812 -4.09375 2.527344 -4.25 C 2.664062 -4.402344 2.847656 -4.523438 3.0625 -4.609375 C 3.269531 -4.695312 3.515625 -4.738281 3.800781 -4.738281 C 4.078125 -4.738281 4.324219 -4.695312 4.539062 -4.609375 C 4.746094 -4.523438 4.929688 -4.402344 5.066406 -4.25 C 5.203125 -4.09375 5.316406 -3.921875 5.382812 -3.714844 C 5.453125 -3.507812 5.496094 -3.285156 5.496094 -3.054688 Z M 5.496094 -3.054688 "/></g></g></g><g fill="#5ce1e6" fill-opacity="0.502"><g transform="translate(24.060422, 67.040445)"><g><path d="M 2.082031 -3.613281 L 3.226562 -2.425781 C 3.269531 -2.375 3.320312 -2.339844 3.386719 -2.304688 C 3.457031 -2.269531 3.527344 -2.253906 3.613281 -2.253906 C 3.699219 -2.253906 3.765625 -2.269531 3.835938 -2.304688 C 3.90625 -2.339844 3.957031 -2.375 4.007812 -2.425781 L 5.152344 -3.613281 L 5.152344 -0.664062 C 5.152344 -0.585938 5.160156 -0.507812 5.195312 -0.429688 C 5.230469 -0.34375 5.273438 -0.273438 5.332031 -0.207031 C 5.390625 -0.136719 5.46875 -0.078125 5.554688 -0.0351562 C 5.640625 0.0078125 5.753906 0.0273438 5.875 0.0273438 C 5.996094 0.0273438 6.097656 0.0078125 6.183594 -0.0351562 C 6.269531 -0.078125 6.347656 -0.128906 6.40625 -0.199219 C 6.46875 -0.265625 6.511719 -0.335938 6.542969 -0.421875 C 6.578125 -0.5 6.597656 -0.578125 6.597656 -0.652344 L 6.597656 -5.390625 C 6.597656 -5.46875 6.578125 -5.546875 6.542969 -5.625 C 6.511719 -5.703125 6.46875 -5.769531 6.40625 -5.839844 C 6.339844 -5.910156 6.261719 -5.960938 6.175781 -6.003906 C 6.089844 -6.039062 5.984375 -6.0625 5.863281 -6.0625 C 5.753906 -6.0625 5.648438 -6.039062 5.554688 -6.003906 C 5.460938 -5.960938 5.382812 -5.910156 5.324219 -5.847656 L 3.59375 -4.042969 L 1.910156 -5.863281 C 1.773438 -6.011719 1.589844 -6.089844 1.367188 -6.089844 C 1.246094 -6.089844 1.136719 -6.0625 1.050781 -6.019531 C 0.964844 -5.976562 0.886719 -5.925781 0.824219 -5.855469 C 0.757812 -5.789062 0.714844 -5.71875 0.679688 -5.640625 C 0.644531 -5.554688 0.636719 -5.476562 0.636719 -5.410156 L 0.636719 -0.671875 C 0.636719 -0.59375 0.644531 -0.515625 0.679688 -0.4375 C 0.714844 -0.351562 0.757812 -0.285156 0.816406 -0.214844 C 0.878906 -0.144531 0.953125 -0.0859375 1.039062 -0.0429688 C 1.125 0 1.238281 0.015625 1.359375 0.015625 C 1.480469 0.015625 1.582031 0 1.675781 -0.0429688 C 1.761719 -0.0859375 1.839844 -0.136719 1.902344 -0.207031 C 1.960938 -0.273438 2.003906 -0.34375 2.039062 -0.429688 C 2.0625 -0.507812 2.082031 -0.585938 2.082031 -0.664062 Z M 2.082031 -3.613281 "/></g></g></g><g fill="#5ce1e6" fill-opacity="0.502"><g transform="translate(31.336101, 67.040445)"><g><path d="M 2.082031 -3.613281 L 3.226562 -2.425781 C 3.269531 -2.375 3.320312 -2.339844 3.386719 -2.304688 C 3.457031 -2.269531 3.527344 -2.253906 3.613281 -2.253906 C 3.699219 -2.253906 3.765625 -2.269531 3.835938 -2.304688 C 3.90625 -2.339844 3.957031 -2.375 4.007812 -2.425781 L 5.152344 -3.613281 L 5.152344 -0.664062 C 5.152344 -0.585938 5.160156 -0.507812 5.195312 -0.429688 C 5.230469 -0.34375 5.273438 -0.273438 5.332031 -0.207031 C 5.390625 -0.136719 5.46875 -0.078125 5.554688 -0.0351562 C 5.640625 0.0078125 5.753906 0.0273438 5.875 0.0273438 C 5.996094 0.0273438 6.097656 0.0078125 6.183594 -0.0351562 C 6.269531 -0.078125 6.347656 -0.128906 6.40625 -0.199219 C 6.46875 -0.265625 6.511719 -0.335938 6.542969 -0.421875 C 6.578125 -0.5 6.597656 -0.578125 6.597656 -0.652344 L 6.597656 -5.390625 C 6.597656 -5.46875 6.578125 -5.546875 6.542969 -5.625 C 6.511719 -5.703125 6.46875 -5.769531 6.40625 -5.839844 C 6.339844 -5.910156 6.261719 -5.960938 6.175781 -6.003906 C 6.089844 -6.039062 5.984375 -6.0625 5.863281 -6.0625 C 5.753906 -6.0625 5.648438 -6.039062 5.554688 -6.003906 C 5.460938 -5.960938 5.382812 -5.910156 5.324219 -5.847656 L 3.59375 -4.042969 L 1.910156 -5.863281 C 1.773438 -6.011719 1.589844 -6.089844 1.367188 -6.089844 C 1.246094 -6.089844 1.136719 -6.0625 1.050781 -6.019531 C 0.964844 -5.976562 0.886719 -5.925781 0.824219 -5.855469 C 0.757812 -5.789062 0.714844 -5.71875 0.679688 -5.640625 C 0.644531 -5.554688 0.636719 -5.476562 0.636719 -5.410156 L 0.636719 -0.671875 C 0.636719 -0.59375 0.644531 -0.515625 0.679688 -0.4375 C 0.714844 -0.351562 0.757812 -0.285156 0.816406 -0.214844 C 0.878906 -0.144531 0.953125 -0.0859375 1.039062 -0.0429688 C 1.125 0 1.238281 0.015625 1.359375 0.015625 C 1.480469 0.015625 1.582031 0 1.675781 -0.0429688 C 1.761719 -0.0859375 1.839844 -0.136719 1.902344 -0.207031 C 1.960938 -0.273438 2.003906 -0.34375 2.039062 -0.429688 C 2.0625 -0.507812 2.082031 -0.585938 2.082031 -0.664062 Z M 2.082031 -3.613281 "/></g></g></g><g fill="#5ce1e6" fill-opacity="0.502"><g transform="translate(38.611779, 67.040445)"><g><path d="M 4.207031 -5.402344 L 4.222656 -2.289062 C 4.222656 -2.167969 4.195312 -2.046875 4.152344 -1.933594 C 4.109375 -1.824219 4.050781 -1.730469 3.964844 -1.644531 C 3.878906 -1.554688 3.785156 -1.496094 3.671875 -1.445312 C 3.558594 -1.394531 3.441406 -1.367188 3.3125 -1.367188 L 3.019531 -1.367188 C 2.882812 -1.367188 2.761719 -1.394531 2.648438 -1.445312 C 2.535156 -1.496094 2.441406 -1.554688 2.355469 -1.644531 C 2.269531 -1.730469 2.210938 -1.824219 2.167969 -1.933594 C 2.117188 -2.046875 2.097656 -2.167969 2.097656 -2.289062 L 2.097656 -5.417969 C 2.097656 -5.496094 2.082031 -5.574219 2.046875 -5.660156 C 2.011719 -5.734375 1.96875 -5.804688 1.910156 -5.875 C 1.839844 -5.933594 1.761719 -5.984375 1.675781 -6.027344 C 1.589844 -6.070312 1.488281 -6.097656 1.367188 -6.097656 C 1.246094 -6.097656 1.136719 -6.070312 1.050781 -6.027344 C 0.964844 -5.984375 0.886719 -5.933594 0.824219 -5.863281 C 0.757812 -5.796875 0.714844 -5.726562 0.679688 -5.648438 C 0.644531 -5.5625 0.636719 -5.488281 0.636719 -5.410156 L 0.636719 -2.277344 C 0.636719 -2.003906 0.6875 -1.738281 0.800781 -1.460938 C 0.902344 -1.1875 1.058594 -0.945312 1.265625 -0.730469 C 1.46875 -0.507812 1.71875 -0.335938 2.011719 -0.199219 C 2.304688 -0.0585938 2.632812 0.0078125 3.011719 0.0078125 L 3.300781 0.0078125 C 3.671875 0.0078125 4.007812 -0.0585938 4.300781 -0.199219 C 4.59375 -0.335938 4.832031 -0.507812 5.039062 -0.730469 C 5.238281 -0.945312 5.390625 -1.1875 5.503906 -1.460938 C 5.605469 -1.738281 5.667969 -2.003906 5.667969 -2.277344 L 5.667969 -5.410156 C 5.667969 -5.488281 5.648438 -5.5625 5.617188 -5.648438 C 5.582031 -5.726562 5.539062 -5.796875 5.476562 -5.863281 C 5.410156 -5.925781 5.332031 -5.976562 5.246094 -6.019531 C 5.160156 -6.0625 5.058594 -6.089844 4.9375 -6.089844 C 4.816406 -6.089844 4.703125 -6.0625 4.617188 -6.019531 C 4.53125 -5.976562 4.453125 -5.925781 4.394531 -5.855469 C 4.324219 -5.789062 4.28125 -5.71875 4.25 -5.640625 C 4.214844 -5.554688 4.207031 -5.476562 4.207031 -5.402344 Z M 4.207031 -5.402344 "/></g></g></g><g fill="#5ce1e6" fill-opacity="0.502"><g transform="translate(44.941449, 67.040445)"><g><path d="M 2.082031 -3.492188 L 4.886719 -0.25 C 4.945312 -0.171875 5.023438 -0.113281 5.125 -0.0585938 C 5.21875 -0.0078125 5.332031 0.0078125 5.453125 0.0078125 C 5.574219 0.0078125 5.675781 -0.0078125 5.761719 -0.0507812 C 5.847656 -0.09375 5.925781 -0.144531 5.984375 -0.214844 C 6.046875 -0.285156 6.089844 -0.351562 6.125 -0.4375 C 6.15625 -0.515625 6.175781 -0.59375 6.175781 -0.671875 L 6.175781 -5.410156 C 6.175781 -5.476562 6.15625 -5.554688 6.125 -5.640625 C 6.089844 -5.71875 6.046875 -5.789062 5.984375 -5.855469 C 5.917969 -5.917969 5.839844 -5.96875 5.753906 -6.011719 C 5.667969 -6.054688 5.5625 -6.082031 5.445312 -6.082031 C 5.324219 -6.082031 5.210938 -6.054688 5.125 -6.011719 C 5.039062 -5.96875 4.960938 -5.917969 4.902344 -5.847656 C 4.832031 -5.777344 4.789062 -5.710938 4.753906 -5.632812 C 4.722656 -5.546875 4.710938 -5.46875 4.710938 -5.402344 L 4.710938 -2.632812 L 1.933594 -5.847656 C 1.867188 -5.917969 1.789062 -5.96875 1.695312 -6.019531 C 1.589844 -6.070312 1.488281 -6.097656 1.367188 -6.097656 C 1.246094 -6.097656 1.136719 -6.070312 1.050781 -6.027344 C 0.964844 -5.984375 0.886719 -5.933594 0.824219 -5.863281 C 0.757812 -5.796875 0.714844 -5.726562 0.679688 -5.648438 C 0.644531 -5.5625 0.636719 -5.488281 0.636719 -5.410156 L 0.636719 -0.679688 C 0.636719 -0.601562 0.644531 -0.523438 0.679688 -0.445312 C 0.714844 -0.359375 0.757812 -0.292969 0.816406 -0.222656 C 0.878906 -0.15625 0.953125 -0.09375 1.039062 -0.0507812 C 1.125 -0.0078125 1.238281 0.0078125 1.359375 0.0078125 C 1.480469 0.0078125 1.582031 -0.0078125 1.675781 -0.0507812 C 1.761719 -0.09375 1.839844 -0.144531 1.902344 -0.214844 C 1.960938 -0.285156 2.003906 -0.351562 2.039062 -0.4375 C 2.0625 -0.515625 2.082031 -0.59375 2.082031 -0.671875 Z M 2.082031 -3.492188 "/></g></g></g><g fill="#5ce1e6" fill-opacity="0.502"><g transform="translate(51.778526, 67.040445)"><g><path d="M 0.628906 -0.671875 C 0.628906 -0.585938 0.644531 -0.507812 0.679688 -0.429688 C 0.714844 -0.34375 0.757812 -0.273438 0.824219 -0.214844 C 0.886719 -0.144531 0.964844 -0.09375 1.058594 -0.0585938 C 1.144531 -0.015625 1.246094 0 1.367188 0 C 1.488281 0 1.589844 -0.015625 1.6875 -0.0585938 C 1.773438 -0.101562 1.847656 -0.15625 1.910156 -0.222656 C 1.96875 -0.292969 2.011719 -0.359375 2.046875 -0.445312 C 2.074219 -0.523438 2.089844 -0.601562 2.089844 -0.679688 L 2.089844 -5.410156 C 2.089844 -5.488281 2.074219 -5.5625 2.039062 -5.648438 C 2.003906 -5.726562 1.960938 -5.796875 1.902344 -5.863281 C 1.832031 -5.925781 1.753906 -5.976562 1.667969 -6.019531 C 1.582031 -6.0625 1.480469 -6.089844 1.359375 -6.089844 C 1.238281 -6.089844 1.125 -6.0625 1.039062 -6.019531 C 0.953125 -5.976562 0.878906 -5.925781 0.816406 -5.855469 C 0.75 -5.789062 0.707031 -5.71875 0.671875 -5.640625 C 0.636719 -5.554688 0.628906 -5.476562 0.628906 -5.410156 Z M 0.628906 -0.671875 "/></g></g></g><g fill="#5ce1e6" fill-opacity="0.502"><g transform="translate(54.521961, 67.040445)"><g><path d="M 1.359375 -6.082031 C 1.238281 -6.082031 1.125 -6.054688 1.039062 -6.011719 C 0.953125 -5.96875 0.878906 -5.917969 0.816406 -5.847656 C 0.75 -5.777344 0.707031 -5.710938 0.671875 -5.632812 C 0.636719 -5.546875 0.628906 -5.46875 0.628906 -5.402344 C 0.628906 -5.316406 0.644531 -5.230469 0.679688 -5.152344 C 0.714844 -5.074219 0.757812 -5.003906 0.824219 -4.945312 C 0.886719 -4.875 0.964844 -4.824219 1.058594 -4.789062 C 1.144531 -4.753906 1.246094 -4.738281 1.367188 -4.738281 L 2.363281 -4.738281 C 2.382812 -4.738281 2.40625 -4.722656 2.433594 -4.703125 C 2.460938 -4.679688 2.476562 -4.644531 2.476562 -4.601562 L 2.476562 -0.679688 C 2.476562 -0.601562 2.484375 -0.523438 2.519531 -0.445312 C 2.554688 -0.359375 2.597656 -0.292969 2.65625 -0.222656 C 2.71875 -0.15625 2.796875 -0.09375 2.882812 -0.0507812 C 2.96875 -0.0078125 3.078125 0.0078125 3.199219 0.0078125 C 3.320312 0.0078125 3.421875 -0.0078125 3.515625 -0.0507812 C 3.601562 -0.09375 3.679688 -0.144531 3.742188 -0.214844 C 3.800781 -0.285156 3.84375 -0.351562 3.878906 -0.4375 C 3.90625 -0.515625 3.921875 -0.59375 3.921875 -0.671875 L 3.921875 -4.59375 C 3.921875 -4.636719 3.929688 -4.667969 3.964844 -4.695312 C 3.992188 -4.710938 4.015625 -4.730469 4.035156 -4.730469 L 5.03125 -4.730469 C 5.152344 -4.730469 5.253906 -4.746094 5.347656 -4.789062 C 5.433594 -4.832031 5.511719 -4.886719 5.574219 -4.953125 C 5.632812 -5.015625 5.675781 -5.082031 5.710938 -5.167969 C 5.734375 -5.253906 5.753906 -5.332031 5.753906 -5.410156 C 5.753906 -5.476562 5.734375 -5.554688 5.703125 -5.640625 C 5.667969 -5.71875 5.625 -5.789062 5.5625 -5.855469 C 5.496094 -5.917969 5.417969 -5.96875 5.332031 -6.011719 C 5.246094 -6.054688 5.144531 -6.082031 5.023438 -6.082031 Z M 1.359375 -6.082031 "/></g></g></g><g fill="#5ce1e6" fill-opacity="0.502"><g transform="translate(60.937628, 67.040445)"><g><path d="M 3.070312 -4.058594 L 2.003906 -5.769531 C 1.933594 -5.855469 1.847656 -5.933594 1.746094 -6.003906 C 1.644531 -6.0625 1.511719 -6.097656 1.375 -6.097656 C 1.253906 -6.097656 1.144531 -6.070312 1.058594 -6.027344 C 0.972656 -5.984375 0.894531 -5.933594 0.835938 -5.863281 C 0.773438 -5.796875 0.730469 -5.726562 0.695312 -5.648438 C 0.664062 -5.5625 0.652344 -5.488281 0.652344 -5.417969 C 0.652344 -5.296875 0.6875 -5.175781 0.757812 -5.066406 L 2.3125 -2.578125 C 2.332031 -2.5625 2.339844 -2.535156 2.339844 -2.503906 L 2.339844 -0.679688 C 2.339844 -0.601562 2.347656 -0.523438 2.382812 -0.445312 C 2.417969 -0.359375 2.460938 -0.292969 2.519531 -0.222656 C 2.578125 -0.15625 2.65625 -0.09375 2.753906 -0.0507812 C 2.839844 -0.0078125 2.949219 0.0078125 3.070312 0.0078125 C 3.191406 0.0078125 3.292969 -0.0078125 3.378906 -0.0507812 C 3.464844 -0.09375 3.542969 -0.144531 3.601562 -0.214844 C 3.664062 -0.285156 3.707031 -0.351562 3.742188 -0.4375 C 3.777344 -0.515625 3.792969 -0.59375 3.792969 -0.671875 L 3.792969 -2.492188 C 3.792969 -2.527344 3.800781 -2.554688 3.820312 -2.570312 L 5.375 -5.058594 C 5.445312 -5.167969 5.476562 -5.289062 5.476562 -5.410156 C 5.476562 -5.476562 5.460938 -5.554688 5.433594 -5.640625 C 5.402344 -5.71875 5.359375 -5.789062 5.296875 -5.855469 C 5.238281 -5.925781 5.160156 -5.976562 5.074219 -6.019531 C 4.980469 -6.0625 4.875 -6.089844 4.753906 -6.089844 C 4.609375 -6.089844 4.480469 -6.054688 4.378906 -5.996094 C 4.273438 -5.925781 4.1875 -5.847656 4.136719 -5.761719 Z M 3.070312 -4.058594 "/></g></g></g><g fill="#ffffff" fill-opacity="1"><g transform="translate(9.157299, 67.109731)"><g><path d="M 5.074219 -1.859375 C 4.886719 -1.6875 4.695312 -1.566406 4.496094 -1.488281 C 4.300781 -1.402344 4.066406 -1.367188 3.800781 -1.367188 C 3.515625 -1.367188 3.269531 -1.410156 3.0625 -1.496094 C 2.847656 -1.582031 2.664062 -1.695312 2.527344 -1.847656 C 2.382812 -2.003906 2.269531 -2.175781 2.203125 -2.382812 C 2.132812 -2.589844 2.097656 -2.8125 2.097656 -3.054688 C 2.097656 -3.285156 2.132812 -3.507812 2.203125 -3.714844 C 2.269531 -3.921875 2.382812 -4.09375 2.527344 -4.25 C 2.664062 -4.402344 2.847656 -4.523438 3.0625 -4.609375 C 3.269531 -4.695312 3.515625 -4.738281 3.800781 -4.738281 C 4.007812 -4.738281 4.214844 -4.703125 4.421875 -4.644531 C 4.625 -4.574219 4.816406 -4.472656 4.972656 -4.335938 C 4.988281 -4.316406 5.003906 -4.308594 5.023438 -4.292969 L 5.074219 -4.238281 C 5.132812 -4.179688 5.203125 -4.128906 5.289062 -4.085938 C 5.367188 -4.042969 5.46875 -4.023438 5.597656 -4.023438 C 5.71875 -4.023438 5.820312 -4.042969 5.910156 -4.085938 C 5.996094 -4.128906 6.070312 -4.179688 6.140625 -4.25 C 6.199219 -4.308594 6.242188 -4.378906 6.277344 -4.464844 C 6.3125 -4.550781 6.328125 -4.625 6.328125 -4.703125 C 6.328125 -4.867188 6.269531 -5.023438 6.148438 -5.160156 C 6.011719 -5.316406 5.847656 -5.453125 5.660156 -5.574219 C 5.46875 -5.691406 5.28125 -5.789062 5.074219 -5.863281 C 4.867188 -5.941406 4.652344 -6.003906 4.4375 -6.039062 C 4.214844 -6.070312 4.007812 -6.097656 3.800781 -6.097656 C 3.355469 -6.097656 2.933594 -6.019531 2.546875 -5.875 C 2.160156 -5.726562 1.824219 -5.519531 1.546875 -5.253906 C 1.265625 -4.988281 1.039062 -4.667969 0.886719 -4.300781 C 0.722656 -3.921875 0.644531 -3.507812 0.644531 -3.054688 C 0.644531 -2.589844 0.722656 -2.175781 0.886719 -1.796875 C 1.039062 -1.417969 1.265625 -1.101562 1.546875 -0.835938 C 1.824219 -0.566406 2.160156 -0.359375 2.546875 -0.214844 C 2.933594 -0.0703125 3.355469 0 3.800781 0 C 4.179688 0 4.539062 -0.0507812 4.894531 -0.164062 C 5.246094 -0.273438 5.5625 -0.445312 5.847656 -0.671875 C 5.96875 -0.757812 6.070312 -0.859375 6.175781 -0.972656 C 6.277344 -1.082031 6.328125 -1.222656 6.328125 -1.394531 C 6.328125 -1.46875 6.3125 -1.546875 6.277344 -1.632812 C 6.242188 -1.710938 6.199219 -1.78125 6.140625 -1.847656 C 6.070312 -1.910156 5.996094 -1.960938 5.910156 -2.003906 C 5.820312 -2.046875 5.71875 -2.074219 5.597656 -2.074219 C 5.46875 -2.074219 5.367188 -2.046875 5.289062 -2.003906 C 5.203125 -1.960938 5.132812 -1.910156 5.074219 -1.859375 Z M 5.074219 -1.859375 "/></g></g></g><g fill="#ffffff" fill-opacity="1"><g transform="translate(16.140573, 67.109731)"><g><path d="M 3.800781 0 C 4.25 0 4.660156 -0.0703125 5.046875 -0.214844 C 5.425781 -0.359375 5.761719 -0.566406 6.046875 -0.835938 C 6.320312 -1.101562 6.542969 -1.417969 6.707031 -1.796875 C 6.863281 -2.175781 6.949219 -2.589844 6.949219 -3.054688 C 6.949219 -3.507812 6.863281 -3.921875 6.707031 -4.300781 C 6.542969 -4.667969 6.320312 -4.988281 6.046875 -5.253906 C 5.761719 -5.519531 5.425781 -5.726562 5.046875 -5.875 C 4.660156 -6.019531 4.25 -6.097656 3.800781 -6.097656 C 3.355469 -6.097656 2.933594 -6.019531 2.546875 -5.875 C 2.160156 -5.726562 1.824219 -5.519531 1.546875 -5.253906 C 1.265625 -4.988281 1.039062 -4.667969 0.886719 -4.300781 C 0.722656 -3.921875 0.644531 -3.507812 0.644531 -3.054688 C 0.644531 -2.589844 0.722656 -2.175781 0.886719 -1.796875 C 1.039062 -1.417969 1.265625 -1.101562 1.546875 -0.835938 C 1.824219 -0.566406 2.160156 -0.359375 2.546875 -0.214844 C 2.933594 -0.0703125 3.355469 0 3.800781 0 Z M 5.496094 -3.054688 C 5.496094 -2.8125 5.453125 -2.589844 5.382812 -2.382812 C 5.316406 -2.175781 5.203125 -2.003906 5.066406 -1.847656 C 4.929688 -1.695312 4.746094 -1.582031 4.539062 -1.496094 C 4.324219 -1.410156 4.078125 -1.367188 3.800781 -1.367188 C 3.515625 -1.367188 3.269531 -1.410156 3.0625 -1.496094 C 2.847656 -1.582031 2.664062 -1.695312 2.527344 -1.847656 C 2.382812 -2.003906 2.269531 -2.175781 2.203125 -2.382812 C 2.132812 -2.589844 2.097656 -2.8125 2.097656 -3.054688 C 2.097656 -3.285156 2.132812 -3.507812 2.203125 -3.714844 C 2.269531 -3.921875 2.382812 -4.09375 2.527344 -4.25 C 2.664062 -4.402344 2.847656 -4.523438 3.0625 -4.609375 C 3.269531 -4.695312 3.515625 -4.738281 3.800781 -4.738281 C 4.078125 -4.738281 4.324219 -4.695312 4.539062 -4.609375 C 4.746094 -4.523438 4.929688 -4.402344 5.066406 -4.25 C 5.203125 -4.09375 5.316406 -3.921875 5.382812 -3.714844 C 5.453125 -3.507812 5.496094 -3.285156 5.496094 -3.054688 Z M 5.496094 -3.054688 "/></g></g></g><g fill="#ffffff" fill-opacity="1"><g transform="translate(23.734453, 67.109731)"><g><path d="M 2.082031 -3.613281 L 3.226562 -2.425781 C 3.269531 -2.375 3.320312 -2.339844 3.386719 -2.304688 C 3.457031 -2.269531 3.527344 -2.253906 3.613281 -2.253906 C 3.699219 -2.253906 3.765625 -2.269531 3.835938 -2.304688 C 3.90625 -2.339844 3.957031 -2.375 4.007812 -2.425781 L 5.152344 -3.613281 L 5.152344 -0.664062 C 5.152344 -0.585938 5.160156 -0.507812 5.195312 -0.429688 C 5.230469 -0.34375 5.273438 -0.273438 5.332031 -0.207031 C 5.390625 -0.136719 5.46875 -0.078125 5.554688 -0.0351562 C 5.640625 0.0078125 5.753906 0.0273438 5.875 0.0273438 C 5.996094 0.0273438 6.097656 0.0078125 6.183594 -0.0351562 C 6.269531 -0.078125 6.347656 -0.128906 6.40625 -0.199219 C 6.46875 -0.265625 6.511719 -0.335938 6.542969 -0.421875 C 6.578125 -0.5 6.597656 -0.578125 6.597656 -0.652344 L 6.597656 -5.390625 C 6.597656 -5.46875 6.578125 -5.546875 6.542969 -5.625 C 6.511719 -5.703125 6.46875 -5.769531 6.40625 -5.839844 C 6.339844 -5.910156 6.261719 -5.960938 6.175781 -6.003906 C 6.089844 -6.039062 5.984375 -6.0625 5.863281 -6.0625 C 5.753906 -6.0625 5.648438 -6.039062 5.554688 -6.003906 C 5.460938 -5.960938 5.382812 -5.910156 5.324219 -5.847656 L 3.59375 -4.042969 L 1.910156 -5.863281 C 1.773438 -6.011719 1.589844 -6.089844 1.367188 -6.089844 C 1.246094 -6.089844 1.136719 -6.0625 1.050781 -6.019531 C 0.964844 -5.976562 0.886719 -5.925781 0.824219 -5.855469 C 0.757812 -5.789062 0.714844 -5.71875 0.679688 -5.640625 C 0.644531 -5.554688 0.636719 -5.476562 0.636719 -5.410156 L 0.636719 -0.671875 C 0.636719 -0.59375 0.644531 -0.515625 0.679688 -0.4375 C 0.714844 -0.351562 0.757812 -0.285156 0.816406 -0.214844 C 0.878906 -0.144531 0.953125 -0.0859375 1.039062 -0.0429688 C 1.125 0 1.238281 0.015625 1.359375 0.015625 C 1.480469 0.015625 1.582031 0 1.675781 -0.0429688 C 1.761719 -0.0859375 1.839844 -0.136719 1.902344 -0.207031 C 1.960938 -0.273438 2.003906 -0.34375 2.039062 -0.429688 C 2.0625 -0.507812 2.082031 -0.585938 2.082031 -0.664062 Z M 2.082031 -3.613281 "/></g></g></g><g fill="#ffffff" fill-opacity="1"><g transform="translate(31.010132, 67.109731)"><g><path d="M 2.082031 -3.613281 L 3.226562 -2.425781 C 3.269531 -2.375 3.320312 -2.339844 3.386719 -2.304688 C 3.457031 -2.269531 3.527344 -2.253906 3.613281 -2.253906 C 3.699219 -2.253906 3.765625 -2.269531 3.835938 -2.304688 C 3.90625 -2.339844 3.957031 -2.375 4.007812 -2.425781 L 5.152344 -3.613281 L 5.152344 -0.664062 C 5.152344 -0.585938 5.160156 -0.507812 5.195312 -0.429688 C 5.230469 -0.34375 5.273438 -0.273438 5.332031 -0.207031 C 5.390625 -0.136719 5.46875 -0.078125 5.554688 -0.0351562 C 5.640625 0.0078125 5.753906 0.0273438 5.875 0.0273438 C 5.996094 0.0273438 6.097656 0.0078125 6.183594 -0.0351562 C 6.269531 -0.078125 6.347656 -0.128906 6.40625 -0.199219 C 6.46875 -0.265625 6.511719 -0.335938 6.542969 -0.421875 C 6.578125 -0.5 6.597656 -0.578125 6.597656 -0.652344 L 6.597656 -5.390625 C 6.597656 -5.46875 6.578125 -5.546875 6.542969 -5.625 C 6.511719 -5.703125 6.46875 -5.769531 6.40625 -5.839844 C 6.339844 -5.910156 6.261719 -5.960938 6.175781 -6.003906 C 6.089844 -6.039062 5.984375 -6.0625 5.863281 -6.0625 C 5.753906 -6.0625 5.648438 -6.039062 5.554688 -6.003906 C 5.460938 -5.960938 5.382812 -5.910156 5.324219 -5.847656 L 3.59375 -4.042969 L 1.910156 -5.863281 C 1.773438 -6.011719 1.589844 -6.089844 1.367188 -6.089844 C 1.246094 -6.089844 1.136719 -6.0625 1.050781 -6.019531 C 0.964844 -5.976562 0.886719 -5.925781 0.824219 -5.855469 C 0.757812 -5.789062 0.714844 -5.71875 0.679688 -5.640625 C 0.644531 -5.554688 0.636719 -5.476562 0.636719 -5.410156 L 0.636719 -0.671875 C 0.636719 -0.59375 0.644531 -0.515625 0.679688 -0.4375 C 0.714844 -0.351562 0.757812 -0.285156 0.816406 -0.214844 C 0.878906 -0.144531 0.953125 -0.0859375 1.039062 -0.0429688 C 1.125 0 1.238281 0.015625 1.359375 0.015625 C 1.480469 0.015625 1.582031 0 1.675781 -0.0429688 C 1.761719 -0.0859375 1.839844 -0.136719 1.902344 -0.207031 C 1.960938 -0.273438 2.003906 -0.34375 2.039062 -0.429688 C 2.0625 -0.507812 2.082031 -0.585938 2.082031 -0.664062 Z M 2.082031 -3.613281 "/></g></g></g><g fill="#ffffff" fill-opacity="1"><g transform="translate(38.28581, 67.109731)"><g><path d="M 4.207031 -5.402344 L 4.222656 -2.289062 C 4.222656 -2.167969 4.195312 -2.046875 4.152344 -1.933594 C 4.109375 -1.824219 4.050781 -1.730469 3.964844 -1.644531 C 3.878906 -1.554688 3.785156 -1.496094 3.671875 -1.445312 C 3.558594 -1.394531 3.441406 -1.367188 3.3125 -1.367188 L 3.019531 -1.367188 C 2.882812 -1.367188 2.761719 -1.394531 2.648438 -1.445312 C 2.535156 -1.496094 2.441406 -1.554688 2.355469 -1.644531 C 2.269531 -1.730469 2.210938 -1.824219 2.167969 -1.933594 C 2.117188 -2.046875 2.097656 -2.167969 2.097656 -2.289062 L 2.097656 -5.417969 C 2.097656 -5.496094 2.082031 -5.574219 2.046875 -5.660156 C 2.011719 -5.734375 1.96875 -5.804688 1.910156 -5.875 C 1.839844 -5.933594 1.761719 -5.984375 1.675781 -6.027344 C 1.589844 -6.070312 1.488281 -6.097656 1.367188 -6.097656 C 1.246094 -6.097656 1.136719 -6.070312 1.050781 -6.027344 C 0.964844 -5.984375 0.886719 -5.933594 0.824219 -5.863281 C 0.757812 -5.796875 0.714844 -5.726562 0.679688 -5.648438 C 0.644531 -5.5625 0.636719 -5.488281 0.636719 -5.410156 L 0.636719 -2.277344 C 0.636719 -2.003906 0.6875 -1.738281 0.800781 -1.460938 C 0.902344 -1.1875 1.058594 -0.945312 1.265625 -0.730469 C 1.46875 -0.507812 1.71875 -0.335938 2.011719 -0.199219 C 2.304688 -0.0585938 2.632812 0.0078125 3.011719 0.0078125 L 3.300781 0.0078125 C 3.671875 0.0078125 4.007812 -0.0585938 4.300781 -0.199219 C 4.59375 -0.335938 4.832031 -0.507812 5.039062 -0.730469 C 5.238281 -0.945312 5.390625 -1.1875 5.503906 -1.460938 C 5.605469 -1.738281 5.667969 -2.003906 5.667969 -2.277344 L 5.667969 -5.410156 C 5.667969 -5.488281 5.648438 -5.5625 5.617188 -5.648438 C 5.582031 -5.726562 5.539062 -5.796875 5.476562 -5.863281 C 5.410156 -5.925781 5.332031 -5.976562 5.246094 -6.019531 C 5.160156 -6.0625 5.058594 -6.089844 4.9375 -6.089844 C 4.816406 -6.089844 4.703125 -6.0625 4.617188 -6.019531 C 4.53125 -5.976562 4.453125 -5.925781 4.394531 -5.855469 C 4.324219 -5.789062 4.28125 -5.71875 4.25 -5.640625 C 4.214844 -5.554688 4.207031 -5.476562 4.207031 -5.402344 Z M 4.207031 -5.402344 "/></g></g></g><g fill="#ffffff" fill-opacity="1"><g transform="translate(44.61548, 67.109731)"><g><path d="M 2.082031 -3.492188 L 4.886719 -0.25 C 4.945312 -0.171875 5.023438 -0.113281 5.125 -0.0585938 C 5.21875 -0.0078125 5.332031 0.0078125 5.453125 0.0078125 C 5.574219 0.0078125 5.675781 -0.0078125 5.761719 -0.0507812 C 5.847656 -0.09375 5.925781 -0.144531 5.984375 -0.214844 C 6.046875 -0.285156 6.089844 -0.351562 6.125 -0.4375 C 6.15625 -0.515625 6.175781 -0.59375 6.175781 -0.671875 L 6.175781 -5.410156 C 6.175781 -5.476562 6.15625 -5.554688 6.125 -5.640625 C 6.089844 -5.71875 6.046875 -5.789062 5.984375 -5.855469 C 5.917969 -5.917969 5.839844 -5.96875 5.753906 -6.011719 C 5.667969 -6.054688 5.5625 -6.082031 5.445312 -6.082031 C 5.324219 -6.082031 5.210938 -6.054688 5.125 -6.011719 C 5.039062 -5.96875 4.960938 -5.917969 4.902344 -5.847656 C 4.832031 -5.777344 4.789062 -5.710938 4.753906 -5.632812 C 4.722656 -5.546875 4.710938 -5.46875 4.710938 -5.402344 L 4.710938 -2.632812 L 1.933594 -5.847656 C 1.867188 -5.917969 1.789062 -5.96875 1.695312 -6.019531 C 1.589844 -6.070312 1.488281 -6.097656 1.367188 -6.097656 C 1.246094 -6.097656 1.136719 -6.070312 1.050781 -6.027344 C 0.964844 -5.984375 0.886719 -5.933594 0.824219 -5.863281 C 0.757812 -5.796875 0.714844 -5.726562 0.679688 -5.648438 C 0.644531 -5.5625 0.636719 -5.488281 0.636719 -5.410156 L 0.636719 -0.679688 C 0.636719 -0.601562 0.644531 -0.523438 0.679688 -0.445312 C 0.714844 -0.359375 0.757812 -0.292969 0.816406 -0.222656 C 0.878906 -0.15625 0.953125 -0.09375 1.039062 -0.0507812 C 1.125 -0.0078125 1.238281 0.0078125 1.359375 0.0078125 C 1.480469 0.0078125 1.582031 -0.0078125 1.675781 -0.0507812 C 1.761719 -0.09375 1.839844 -0.144531 1.902344 -0.214844 C 1.960938 -0.285156 2.003906 -0.351562 2.039062 -0.4375 C 2.0625 -0.515625 2.082031 -0.59375 2.082031 -0.671875 Z M 2.082031 -3.492188 "/></g></g></g><g fill="#ffffff" fill-opacity="1"><g transform="translate(51.452557, 67.109731)"><g><path d="M 0.628906 -0.671875 C 0.628906 -0.585938 0.644531 -0.507812 0.679688 -0.429688 C 0.714844 -0.34375 0.757812 -0.273438 0.824219 -0.214844 C 0.886719 -0.144531 0.964844 -0.09375 1.058594 -0.0585938 C 1.144531 -0.015625 1.246094 0 1.367188 0 C 1.488281 0 1.589844 -0.015625 1.6875 -0.0585938 C 1.773438 -0.101562 1.847656 -0.15625 1.910156 -0.222656 C 1.96875 -0.292969 2.011719 -0.359375 2.046875 -0.445312 C 2.074219 -0.523438 2.089844 -0.601562 2.089844 -0.679688 L 2.089844 -5.410156 C 2.089844 -5.488281 2.074219 -5.5625 2.039062 -5.648438 C 2.003906 -5.726562 1.960938 -5.796875 1.902344 -5.863281 C 1.832031 -5.925781 1.753906 -5.976562 1.667969 -6.019531 C 1.582031 -6.0625 1.480469 -6.089844 1.359375 -6.089844 C 1.238281 -6.089844 1.125 -6.0625 1.039062 -6.019531 C 0.953125 -5.976562 0.878906 -5.925781 0.816406 -5.855469 C 0.75 -5.789062 0.707031 -5.71875 0.671875 -5.640625 C 0.636719 -5.554688 0.628906 -5.476562 0.628906 -5.410156 Z M 0.628906 -0.671875 "/></g></g></g><g fill="#ffffff" fill-opacity="1"><g transform="translate(54.195992, 67.109731)"><g><path d="M 1.359375 -6.082031 C 1.238281 -6.082031 1.125 -6.054688 1.039062 -6.011719 C 0.953125 -5.96875 0.878906 -5.917969 0.816406 -5.847656 C 0.75 -5.777344 0.707031 -5.710938 0.671875 -5.632812 C 0.636719 -5.546875 0.628906 -5.46875 0.628906 -5.402344 C 0.628906 -5.316406 0.644531 -5.230469 0.679688 -5.152344 C 0.714844 -5.074219 0.757812 -5.003906 0.824219 -4.945312 C 0.886719 -4.875 0.964844 -4.824219 1.058594 -4.789062 C 1.144531 -4.753906 1.246094 -4.738281 1.367188 -4.738281 L 2.363281 -4.738281 C 2.382812 -4.738281 2.40625 -4.722656 2.433594 -4.703125 C 2.460938 -4.679688 2.476562 -4.644531 2.476562 -4.601562 L 2.476562 -0.679688 C 2.476562 -0.601562 2.484375 -0.523438 2.519531 -0.445312 C 2.554688 -0.359375 2.597656 -0.292969 2.65625 -0.222656 C 2.71875 -0.15625 2.796875 -0.09375 2.882812 -0.0507812 C 2.96875 -0.0078125 3.078125 0.0078125 3.199219 0.0078125 C 3.320312 0.0078125 3.421875 -0.0078125 3.515625 -0.0507812 C 3.601562 -0.09375 3.679688 -0.144531 3.742188 -0.214844 C 3.800781 -0.285156 3.84375 -0.351562 3.878906 -0.4375 C 3.90625 -0.515625 3.921875 -0.59375 3.921875 -0.671875 L 3.921875 -4.59375 C 3.921875 -4.636719 3.929688 -4.667969 3.964844 -4.695312 C 3.992188 -4.710938 4.015625 -4.730469 4.035156 -4.730469 L 5.03125 -4.730469 C 5.152344 -4.730469 5.253906 -4.746094 5.347656 -4.789062 C 5.433594 -4.832031 5.511719 -4.886719 5.574219 -4.953125 C 5.632812 -5.015625 5.675781 -5.082031 5.710938 -5.167969 C 5.734375 -5.253906 5.753906 -5.332031 5.753906 -5.410156 C 5.753906 -5.476562 5.734375 -5.554688 5.703125 -5.640625 C 5.667969 -5.71875 5.625 -5.789062 5.5625 -5.855469 C 5.496094 -5.917969 5.417969 -5.96875 5.332031 -6.011719 C 5.246094 -6.054688 5.144531 -6.082031 5.023438 -6.082031 Z M 1.359375 -6.082031 "/></g></g></g><g fill="#ffffff" fill-opacity="1"><g transform="translate(60.611659, 67.109731)"><g><path d="M 3.070312 -4.058594 L 2.003906 -5.769531 C 1.933594 -5.855469 1.847656 -5.933594 1.746094 -6.003906 C 1.644531 -6.0625 1.511719 -6.097656 1.375 -6.097656 C 1.253906 -6.097656 1.144531 -6.070312 1.058594 -6.027344 C 0.972656 -5.984375 0.894531 -5.933594 0.835938 -5.863281 C 0.773438 -5.796875 0.730469 -5.726562 0.695312 -5.648438 C 0.664062 -5.5625 0.652344 -5.488281 0.652344 -5.417969 C 0.652344 -5.296875 0.6875 -5.175781 0.757812 -5.066406 L 2.3125 -2.578125 C 2.332031 -2.5625 2.339844 -2.535156 2.339844 -2.503906 L 2.339844 -0.679688 C 2.339844 -0.601562 2.347656 -0.523438 2.382812 -0.445312 C 2.417969 -0.359375 2.460938 -0.292969 2.519531 -0.222656 C 2.578125 -0.15625 2.65625 -0.09375 2.753906 -0.0507812 C 2.839844 -0.0078125 2.949219 0.0078125 3.070312 0.0078125 C 3.191406 0.0078125 3.292969 -0.0078125 3.378906 -0.0507812 C 3.464844 -0.09375 3.542969 -0.144531 3.601562 -0.214844 C 3.664062 -0.285156 3.707031 -0.351562 3.742188 -0.4375 C 3.777344 -0.515625 3.792969 -0.59375 3.792969 -0.671875 L 3.792969 -2.492188 C 3.792969 -2.527344 3.800781 -2.554688 3.820312 -2.570312 L 5.375 -5.058594 C 5.445312 -5.167969 5.476562 -5.289062 5.476562 -5.410156 C 5.476562 -5.476562 5.460938 -5.554688 5.433594 -5.640625 C 5.402344 -5.71875 5.359375 -5.789062 5.296875 -5.855469 C 5.238281 -5.925781 5.160156 -5.976562 5.074219 -6.019531 C 4.980469 -6.0625 4.875 -6.089844 4.753906 -6.089844 C 4.609375 -6.089844 4.480469 -6.054688 4.378906 -5.996094 C 4.273438 -5.925781 4.1875 -5.847656 4.136719 -5.761719 Z M 3.070312 -4.058594 "/></g></g></g></svg>