<svg xmlns="http://www.w3.org/2000/svg" xmlns:xlink="http://www.w3.org/1999/xlink" width="100" zoomAndPan="magnify" viewBox="0 0 75 74.999997" height="100" preserveAspectRatio="xMidYMid meet" version="1.0"><defs><g/><clipPath id="d6b2544700"><path d="M 11 5 L 64 5 L 64 59 L 11 59 Z M 11 5 " clip-rule="nonzero"/></clipPath><clipPath id="dc6777447b"><path d="M 63.847656 31.917969 C 63.847656 46.480469 52.042969 58.285156 37.480469 58.285156 C 22.917969 58.285156 11.113281 46.480469 11.113281 31.917969 C 11.113281 17.355469 22.917969 5.550781 37.480469 5.550781 C 52.042969 5.550781 63.847656 17.355469 63.847656 31.917969 Z M 63.847656 31.917969 " clip-rule="nonzero"/></clipPath><linearGradient x1="15.397689" gradientTransform="matrix(1.757812, 0, 0, 1.757812, 9.354016, 3.794402)" y1="-1.944808" x2="22.491925" gradientUnits="userSpaceOnUse" y2="32.740183" id="b269e49428"><stop stop-opacity="1" stop-color="rgb(0%, 95.298767%, 62.399292%)" offset="0"/><stop stop-opacity="1" stop-color="rgb(0%, 95.298767%, 62.399292%)" offset="0.0625"/><stop stop-opacity="1" stop-color="rgb(0.0137329%, 95.20874%, 62.373352%)" offset="0.09375"/><stop stop-opacity="1" stop-color="rgb(0.0518799%, 94.958496%, 62.30011%)" offset="0.109375"/><stop stop-opacity="1" stop-color="rgb(0.100708%, 94.638062%, 62.208557%)" offset="0.125"/><stop stop-opacity="1" stop-color="rgb(0.14801%, 94.319153%, 62.117004%)" offset="0.140625"/><stop stop-opacity="1" stop-color="rgb(0.196838%, 93.998718%, 62.023926%)" offset="0.15625"/><stop stop-opacity="1" stop-color="rgb(0.245667%, 93.678284%, 61.932373%)" offset="0.169803"/><stop stop-opacity="1" stop-color="rgb(0.270081%, 93.519592%, 61.886597%)" offset="0.171875"/><stop stop-opacity="1" stop-color="rgb(0.294495%, 93.359375%, 61.839294%)" offset="0.1875"/><stop stop-opacity="1" stop-color="rgb(0.343323%, 93.03894%, 61.747742%)" offset="0.203125"/><stop stop-opacity="1" stop-color="rgb(0.392151%, 92.720032%, 61.656189%)" offset="0.21875"/><stop stop-opacity="1" stop-color="rgb(0.440979%, 92.399597%, 61.56311%)" offset="0.234375"/><stop stop-opacity="1" stop-color="rgb(0.489807%, 92.080688%, 61.471558%)" offset="0.25"/><stop stop-opacity="1" stop-color="rgb(0.538635%, 91.760254%, 61.380005%)" offset="0.265625"/><stop stop-opacity="1" stop-color="rgb(0.587463%, 91.441345%, 61.286926%)" offset="0.28125"/><stop stop-opacity="1" stop-color="rgb(0.636292%, 91.120911%, 61.195374%)" offset="0.296875"/><stop stop-opacity="1" stop-color="rgb(0.68512%, 90.800476%, 61.102295%)" offset="0.3125"/><stop stop-opacity="1" stop-color="rgb(0.733948%, 90.481567%, 61.010742%)" offset="0.328125"/><stop stop-opacity="1" stop-color="rgb(0.782776%, 90.161133%, 60.919189%)" offset="0.34375"/><stop stop-opacity="1" stop-color="rgb(0.831604%, 89.842224%, 60.826111%)" offset="0.359375"/><stop stop-opacity="1" stop-color="rgb(0.880432%, 89.52179%, 60.734558%)" offset="0.375"/><stop stop-opacity="1" stop-color="rgb(0.92926%, 89.202881%, 60.643005%)" offset="0.390625"/><stop stop-opacity="1" stop-color="rgb(0.978088%, 88.882446%, 60.549927%)" offset="0.40625"/><stop stop-opacity="1" stop-color="rgb(1.026917%, 88.563538%, 60.458374%)" offset="0.421875"/><stop stop-opacity="1" stop-color="rgb(1.075745%, 88.243103%, 60.365295%)" offset="0.4375"/><stop stop-opacity="1" stop-color="rgb(1.124573%, 87.922668%, 60.273743%)" offset="0.453125"/><stop stop-opacity="1" stop-color="rgb(1.173401%, 87.60376%, 60.18219%)" offset="0.46875"/><stop stop-opacity="1" stop-color="rgb(1.222229%, 87.283325%, 60.089111%)" offset="0.484375"/><stop stop-opacity="1" stop-color="rgb(1.271057%, 86.964417%, 59.997559%)" offset="0.5"/><stop stop-opacity="1" stop-color="rgb(1.319885%, 86.643982%, 59.906006%)" offset="0.515625"/><stop stop-opacity="1" stop-color="rgb(1.368713%, 86.325073%, 59.812927%)" offset="0.53125"/><stop stop-opacity="1" stop-color="rgb(1.417542%, 86.004639%, 59.721375%)" offset="0.546875"/><stop stop-opacity="1" stop-color="rgb(1.46637%, 85.68573%, 59.628296%)" offset="0.5625"/><stop stop-opacity="1" stop-color="rgb(1.515198%, 85.365295%, 59.536743%)" offset="0.578125"/><stop stop-opacity="1" stop-color="rgb(1.564026%, 85.044861%, 59.44519%)" offset="0.59375"/><stop stop-opacity="1" stop-color="rgb(1.611328%, 84.725952%, 59.352112%)" offset="0.609375"/><stop stop-opacity="1" stop-color="rgb(1.660156%, 84.405518%, 59.260559%)" offset="0.625"/><stop stop-opacity="1" stop-color="rgb(1.708984%, 84.086609%, 59.16748%)" offset="0.640625"/><stop stop-opacity="1" stop-color="rgb(1.757812%, 83.766174%, 59.075928%)" offset="0.65625"/><stop stop-opacity="1" stop-color="rgb(1.806641%, 83.447266%, 58.984375%)" offset="0.671875"/><stop stop-opacity="1" stop-color="rgb(1.855469%, 83.126831%, 58.891296%)" offset="0.6875"/><stop stop-opacity="1" stop-color="rgb(1.904297%, 82.807922%, 58.799744%)" offset="0.703125"/><stop stop-opacity="1" stop-color="rgb(1.953125%, 82.487488%, 58.708191%)" offset="0.71875"/><stop stop-opacity="1" stop-color="rgb(2.001953%, 82.168579%, 58.615112%)" offset="0.734375"/><stop stop-opacity="1" stop-color="rgb(2.050781%, 81.848145%, 58.52356%)" offset="0.75"/><stop stop-opacity="1" stop-color="rgb(2.099609%, 81.52771%, 58.430481%)" offset="0.765625"/><stop stop-opacity="1" stop-color="rgb(2.148438%, 81.208801%, 58.338928%)" offset="0.78125"/><stop stop-opacity="1" stop-color="rgb(2.197266%, 80.888367%, 58.247375%)" offset="0.796875"/><stop stop-opacity="1" stop-color="rgb(2.246094%, 80.569458%, 58.154297%)" offset="0.8125"/><stop stop-opacity="1" stop-color="rgb(2.294922%, 80.249023%, 58.062744%)" offset="0.828125"/><stop stop-opacity="1" stop-color="rgb(2.34375%, 79.930115%, 57.971191%)" offset="0.830197"/><stop stop-opacity="1" stop-color="rgb(2.368164%, 79.769897%, 57.925415%)" offset="0.84375"/><stop stop-opacity="1" stop-color="rgb(2.392578%, 79.60968%, 57.878113%)" offset="0.859375"/><stop stop-opacity="1" stop-color="rgb(2.441406%, 79.290771%, 57.78656%)" offset="0.875"/><stop stop-opacity="1" stop-color="rgb(2.490234%, 78.970337%, 57.693481%)" offset="0.890625"/><stop stop-opacity="1" stop-color="rgb(2.539062%, 78.649902%, 57.601929%)" offset="0.90625"/><stop stop-opacity="1" stop-color="rgb(2.587891%, 78.330994%, 57.510376%)" offset="0.921875"/><stop stop-opacity="1" stop-color="rgb(2.636719%, 78.010559%, 57.417297%)" offset="0.9375"/><stop stop-opacity="1" stop-color="rgb(2.679443%, 77.72522%, 57.3349%)" offset="1"/></linearGradient></defs><g clip-path="url(#d6b2544700)"><g clip-path="url(#dc6777447b)"><path fill="url(#b269e49428)" d="M 11.113281 5.550781 L 11.113281 58.285156 L 63.847656 58.285156 L 63.847656 5.550781 Z M 11.113281 5.550781 " fill-rule="nonzero"/></g></g><path fill="#ffffff" d="M 26.230469 31.917969 C 26.230469 25.707031 31.265625 20.667969 37.480469 20.667969 C 43.691406 20.667969 48.730469 25.707031 48.730469 31.917969 C 48.730469 38.132812 43.691406 43.167969 37.480469 43.167969 C 35.261719 43.167969 33.199219 42.53125 31.460938 41.425781 C 31.105469 41.199219 30.664062 41.144531 30.261719 41.28125 L 27.046875 42.351562 L 28.117188 39.136719 C 28.253906 38.734375 28.199219 38.292969 27.972656 37.9375 C 26.867188 36.199219 26.230469 34.136719 26.230469 31.917969 Z M 37.480469 17.855469 C 29.710938 17.855469 23.417969 24.152344 23.417969 31.917969 C 23.417969 34.441406 24.082031 36.8125 25.246094 38.859375 L 23.488281 44.132812 C 23.320312 44.636719 23.453125 45.191406 23.828125 45.570312 C 24.203125 45.945312 24.761719 46.078125 25.265625 45.910156 L 30.539062 44.152344 C 32.585938 45.316406 34.957031 45.980469 37.480469 45.980469 C 45.246094 45.980469 51.542969 39.6875 51.542969 31.917969 C 51.542969 24.152344 45.246094 17.855469 37.480469 17.855469 Z M 31.511719 25.953125 C 30.425781 27.039062 29.699219 28.347656 29.328125 29.738281 C 29.125 30.488281 29.574219 31.257812 30.324219 31.457031 C 31.074219 31.65625 31.84375 31.210938 32.042969 30.460938 C 32.289062 29.539062 32.773438 28.667969 33.5 27.941406 C 34.226562 27.214844 35.097656 26.730469 36.019531 26.484375 C 36.773438 26.285156 37.21875 25.515625 37.015625 24.765625 C 36.816406 24.011719 36.046875 23.566406 35.296875 23.769531 C 33.910156 24.136719 32.597656 24.867188 31.511719 25.953125 Z M 39.660156 23.769531 C 38.910156 23.566406 38.140625 24.011719 37.941406 24.765625 C 37.738281 25.515625 38.1875 26.285156 38.9375 26.484375 C 39.859375 26.730469 40.730469 27.214844 41.457031 27.941406 C 42.183594 28.667969 42.667969 29.539062 42.914062 30.460938 C 43.113281 31.210938 43.882812 31.65625 44.632812 31.457031 C 45.382812 31.257812 45.832031 30.488281 45.628906 29.738281 C 45.261719 28.347656 44.53125 27.039062 43.445312 25.953125 C 42.359375 24.867188 41.046875 24.136719 39.660156 23.769531 Z M 32.042969 33.375 C 31.84375 32.625 31.074219 32.179688 30.324219 32.378906 C 29.574219 32.582031 29.125 33.351562 29.328125 34.101562 C 29.699219 35.488281 30.425781 36.800781 31.511719 37.886719 C 32.597656 38.972656 33.910156 39.699219 35.296875 40.070312 C 36.046875 40.269531 36.816406 39.824219 37.015625 39.074219 C 37.21875 38.324219 36.773438 37.554688 36.019531 37.351562 C 35.097656 37.105469 34.226562 36.625 33.5 35.898438 C 32.773438 35.171875 32.289062 34.300781 32.042969 33.375 Z M 38.9375 37.351562 C 38.1875 37.554688 37.738281 38.324219 37.941406 39.074219 C 38.140625 39.824219 38.910156 40.269531 39.660156 40.070312 C 41.046875 39.699219 42.359375 38.972656 43.445312 37.886719 C 44.53125 36.800781 45.261719 35.488281 45.628906 34.101562 C 45.832031 33.351562 45.382812 32.582031 44.632812 32.378906 C 43.882812 32.179688 43.113281 32.625 42.914062 33.375 C 42.667969 34.300781 42.183594 35.171875 41.457031 35.898438 C 40.730469 36.625 39.859375 37.105469 38.9375 37.351562 Z M 38.9375 37.351562 " fill-opacity="1" fill-rule="evenodd"/><g fill="#5ce1e6" fill-opacity="0.302"><g transform="translate(16.483222, 66.971157)"><g><path d="M 5.074219 -1.859375 C 4.886719 -1.6875 4.695312 -1.566406 4.496094 -1.488281 C 4.300781 -1.402344 4.066406 -1.367188 3.800781 -1.367188 C 3.515625 -1.367188 3.269531 -1.410156 3.0625 -1.496094 C 2.847656 -1.582031 2.664062 -1.695312 2.527344 -1.847656 C 2.382812 -2.003906 2.269531 -2.175781 2.203125 -2.382812 C 2.132812 -2.589844 2.097656 -2.8125 2.097656 -3.054688 C 2.097656 -3.285156 2.132812 -3.507812 2.203125 -3.714844 C 2.269531 -3.921875 2.382812 -4.09375 2.527344 -4.25 C 2.664062 -4.402344 2.847656 -4.523438 3.0625 -4.609375 C 3.269531 -4.695312 3.515625 -4.738281 3.800781 -4.738281 C 4.007812 -4.738281 4.214844 -4.703125 4.421875 -4.644531 C 4.625 -4.574219 4.816406 -4.472656 4.972656 -4.335938 C 4.988281 -4.316406 5.003906 -4.308594 5.023438 -4.292969 L 5.074219 -4.238281 C 5.132812 -4.179688 5.203125 -4.128906 5.289062 -4.085938 C 5.367188 -4.042969 5.46875 -4.023438 5.597656 -4.023438 C 5.71875 -4.023438 5.820312 -4.042969 5.910156 -4.085938 C 5.996094 -4.128906 6.070312 -4.179688 6.140625 -4.25 C 6.199219 -4.308594 6.242188 -4.378906 6.277344 -4.464844 C 6.3125 -4.550781 6.328125 -4.625 6.328125 -4.703125 C 6.328125 -4.867188 6.269531 -5.023438 6.148438 -5.160156 C 6.011719 -5.316406 5.847656 -5.453125 5.660156 -5.574219 C 5.46875 -5.691406 5.28125 -5.789062 5.074219 -5.863281 C 4.867188 -5.941406 4.652344 -6.003906 4.4375 -6.039062 C 4.214844 -6.070312 4.007812 -6.097656 3.800781 -6.097656 C 3.355469 -6.097656 2.933594 -6.019531 2.546875 -5.875 C 2.160156 -5.726562 1.824219 -5.519531 1.546875 -5.253906 C 1.265625 -4.988281 1.039062 -4.667969 0.886719 -4.300781 C 0.722656 -3.921875 0.644531 -3.507812 0.644531 -3.054688 C 0.644531 -2.589844 0.722656 -2.175781 0.886719 -1.796875 C 1.039062 -1.417969 1.265625 -1.101562 1.546875 -0.835938 C 1.824219 -0.566406 2.160156 -0.359375 2.546875 -0.214844 C 2.933594 -0.0703125 3.355469 0 3.800781 0 C 4.179688 0 4.539062 -0.0507812 4.894531 -0.164062 C 5.246094 -0.273438 5.5625 -0.445312 5.847656 -0.671875 C 5.96875 -0.757812 6.070312 -0.859375 6.175781 -0.972656 C 6.277344 -1.082031 6.328125 -1.222656 6.328125 -1.394531 C 6.328125 -1.46875 6.3125 -1.546875 6.277344 -1.632812 C 6.242188 -1.710938 6.199219 -1.78125 6.140625 -1.847656 C 6.070312 -1.910156 5.996094 -1.960938 5.910156 -2.003906 C 5.820312 -2.046875 5.71875 -2.074219 5.597656 -2.074219 C 5.46875 -2.074219 5.367188 -2.046875 5.289062 -2.003906 C 5.203125 -1.960938 5.132812 -1.910156 5.074219 -1.859375 Z M 5.074219 -1.859375 "/></g></g></g><g fill="#5ce1e6" fill-opacity="0.302"><g transform="translate(23.466496, 66.971157)"><g><path d="M 4.207031 -3.972656 L 2.210938 -3.972656 C 2.191406 -3.972656 2.167969 -3.980469 2.140625 -4.007812 C 2.105469 -4.023438 2.097656 -4.058594 2.097656 -4.109375 L 2.097656 -5.417969 C 2.097656 -5.496094 2.082031 -5.574219 2.046875 -5.660156 C 2.011719 -5.734375 1.96875 -5.804688 1.910156 -5.875 C 1.839844 -5.933594 1.761719 -5.984375 1.675781 -6.027344 C 1.589844 -6.070312 1.488281 -6.097656 1.367188 -6.097656 C 1.246094 -6.097656 1.136719 -6.070312 1.050781 -6.027344 C 0.964844 -5.984375 0.886719 -5.933594 0.824219 -5.863281 C 0.757812 -5.796875 0.714844 -5.726562 0.679688 -5.648438 C 0.644531 -5.5625 0.636719 -5.488281 0.636719 -5.410156 L 0.636719 -0.679688 C 0.636719 -0.601562 0.644531 -0.523438 0.679688 -0.445312 C 0.714844 -0.359375 0.757812 -0.292969 0.816406 -0.222656 C 0.878906 -0.15625 0.953125 -0.09375 1.039062 -0.0507812 C 1.125 -0.0078125 1.238281 0.0078125 1.359375 0.0078125 C 1.480469 0.0078125 1.582031 -0.0078125 1.675781 -0.0507812 C 1.761719 -0.09375 1.839844 -0.144531 1.902344 -0.214844 C 1.960938 -0.285156 2.003906 -0.351562 2.039062 -0.4375 C 2.0625 -0.515625 2.082031 -0.59375 2.082031 -0.671875 L 2.082031 -2.46875 C 2.082031 -2.511719 2.089844 -2.546875 2.125 -2.570312 C 2.148438 -2.589844 2.175781 -2.605469 2.191406 -2.605469 L 4.1875 -2.605469 C 4.207031 -2.605469 4.230469 -2.589844 4.257812 -2.570312 C 4.28125 -2.546875 4.300781 -2.511719 4.300781 -2.46875 L 4.300781 -0.671875 C 4.300781 -0.59375 4.308594 -0.515625 4.34375 -0.4375 C 4.378906 -0.351562 4.421875 -0.285156 4.480469 -0.214844 C 4.539062 -0.144531 4.617188 -0.0859375 4.703125 -0.0429688 C 4.789062 0 4.902344 0.015625 5.023438 0.015625 C 5.144531 0.015625 5.246094 0 5.339844 -0.0429688 C 5.425781 -0.0859375 5.503906 -0.136719 5.5625 -0.207031 C 5.625 -0.273438 5.667969 -0.34375 5.703125 -0.429688 C 5.726562 -0.507812 5.746094 -0.585938 5.746094 -0.664062 L 5.746094 -5.402344 C 5.746094 -5.46875 5.726562 -5.546875 5.691406 -5.632812 C 5.660156 -5.710938 5.617188 -5.777344 5.554688 -5.847656 C 5.488281 -5.910156 5.410156 -5.960938 5.324219 -6.003906 C 5.238281 -6.046875 5.132812 -6.070312 5.015625 -6.070312 C 4.894531 -6.070312 4.78125 -6.046875 4.695312 -6.003906 C 4.609375 -5.960938 4.53125 -5.910156 4.472656 -5.839844 C 4.402344 -5.769531 4.359375 -5.703125 4.324219 -5.625 C 4.292969 -5.539062 4.28125 -5.460938 4.28125 -5.390625 L 4.28125 -4.078125 C 4.28125 -4.023438 4.273438 -4 4.257812 -3.992188 C 4.238281 -3.972656 4.222656 -3.972656 4.207031 -3.972656 Z M 4.207031 -3.972656 "/></g></g></g><g fill="#5ce1e6" fill-opacity="0.302"><g transform="translate(29.882163, 66.971157)"><g><path d="M 4.171875 -5.5625 C 4.121094 -5.703125 4.015625 -5.820312 3.878906 -5.933594 C 3.730469 -6.039062 3.558594 -6.097656 3.363281 -6.097656 C 3.15625 -6.097656 2.984375 -6.039062 2.839844 -5.933594 C 2.691406 -5.832031 2.589844 -5.703125 2.535156 -5.5625 L 0.6875 -0.921875 C 0.652344 -0.84375 0.644531 -0.765625 0.644531 -0.679688 C 0.644531 -0.601562 0.652344 -0.523438 0.6875 -0.445312 C 0.722656 -0.359375 0.765625 -0.292969 0.824219 -0.230469 C 0.886719 -0.164062 0.964844 -0.113281 1.058594 -0.0703125 C 1.144531 -0.0273438 1.246094 -0.0078125 1.367188 -0.0078125 C 1.539062 -0.0078125 1.6875 -0.0507812 1.804688 -0.144531 C 1.917969 -0.230469 1.996094 -0.335938 2.046875 -0.457031 L 2.527344 -1.667969 C 2.535156 -1.6875 2.554688 -1.703125 2.570312 -1.71875 C 2.589844 -1.730469 2.613281 -1.738281 2.632812 -1.738281 L 4.085938 -1.738281 C 4.121094 -1.738281 4.152344 -1.710938 4.1875 -1.667969 L 4.660156 -0.457031 C 4.703125 -0.335938 4.78125 -0.230469 4.902344 -0.144531 C 5.015625 -0.0507812 5.160156 -0.0078125 5.339844 -0.0078125 C 5.460938 -0.0078125 5.5625 -0.0273438 5.648438 -0.0703125 C 5.734375 -0.113281 5.8125 -0.164062 5.882812 -0.230469 C 5.941406 -0.292969 5.984375 -0.359375 6.019531 -0.445312 C 6.054688 -0.523438 6.070312 -0.601562 6.070312 -0.679688 C 6.070312 -0.765625 6.054688 -0.851562 6.019531 -0.921875 Z M 3.355469 -3.722656 C 3.371094 -3.671875 3.386719 -3.628906 3.40625 -3.585938 C 3.421875 -3.535156 3.449219 -3.492188 3.464844 -3.441406 C 3.484375 -3.378906 3.507812 -3.328125 3.535156 -3.277344 C 3.550781 -3.226562 3.570312 -3.171875 3.585938 -3.128906 C 3.59375 -3.105469 3.601562 -3.085938 3.601562 -3.085938 L 3.085938 -3.085938 C 3.097656 -3.097656 3.105469 -3.105469 3.105469 -3.121094 C 3.140625 -3.226562 3.183594 -3.320312 3.226562 -3.421875 C 3.257812 -3.527344 3.300781 -3.621094 3.355469 -3.722656 Z M 3.355469 -3.722656 "/></g></g></g><g fill="#5ce1e6" fill-opacity="0.302"><g transform="translate(36.590234, 66.971157)"><g><path d="M 2.082031 -3.492188 L 4.886719 -0.25 C 4.945312 -0.171875 5.023438 -0.113281 5.125 -0.0585938 C 5.21875 -0.0078125 5.332031 0.0078125 5.453125 0.0078125 C 5.574219 0.0078125 5.675781 -0.0078125 5.761719 -0.0507812 C 5.847656 -0.09375 5.925781 -0.144531 5.984375 -0.214844 C 6.046875 -0.285156 6.089844 -0.351562 6.125 -0.4375 C 6.15625 -0.515625 6.175781 -0.59375 6.175781 -0.671875 L 6.175781 -5.410156 C 6.175781 -5.476562 6.15625 -5.554688 6.125 -5.640625 C 6.089844 -5.71875 6.046875 -5.789062 5.984375 -5.855469 C 5.917969 -5.917969 5.839844 -5.96875 5.753906 -6.011719 C 5.667969 -6.054688 5.5625 -6.082031 5.445312 -6.082031 C 5.324219 -6.082031 5.210938 -6.054688 5.125 -6.011719 C 5.039062 -5.96875 4.960938 -5.917969 4.902344 -5.847656 C 4.832031 -5.777344 4.789062 -5.710938 4.753906 -5.632812 C 4.722656 -5.546875 4.710938 -5.46875 4.710938 -5.402344 L 4.710938 -2.632812 L 1.933594 -5.847656 C 1.867188 -5.917969 1.789062 -5.96875 1.695312 -6.019531 C 1.589844 -6.070312 1.488281 -6.097656 1.367188 -6.097656 C 1.246094 -6.097656 1.136719 -6.070312 1.050781 -6.027344 C 0.964844 -5.984375 0.886719 -5.933594 0.824219 -5.863281 C 0.757812 -5.796875 0.714844 -5.726562 0.679688 -5.648438 C 0.644531 -5.5625 0.636719 -5.488281 0.636719 -5.410156 L 0.636719 -0.679688 C 0.636719 -0.601562 0.644531 -0.523438 0.679688 -0.445312 C 0.714844 -0.359375 0.757812 -0.292969 0.816406 -0.222656 C 0.878906 -0.15625 0.953125 -0.09375 1.039062 -0.0507812 C 1.125 -0.0078125 1.238281 0.0078125 1.359375 0.0078125 C 1.480469 0.0078125 1.582031 -0.0078125 1.675781 -0.0507812 C 1.761719 -0.09375 1.839844 -0.144531 1.902344 -0.214844 C 1.960938 -0.285156 2.003906 -0.351562 2.039062 -0.4375 C 2.0625 -0.515625 2.082031 -0.59375 2.082031 -0.671875 Z M 2.082031 -3.492188 "/></g></g></g><g fill="#5ce1e6" fill-opacity="0.302"><g transform="translate(43.427311, 66.971157)"><g><path d="M 2.082031 -3.492188 L 4.886719 -0.25 C 4.945312 -0.171875 5.023438 -0.113281 5.125 -0.0585938 C 5.21875 -0.0078125 5.332031 0.0078125 5.453125 0.0078125 C 5.574219 0.0078125 5.675781 -0.0078125 5.761719 -0.0507812 C 5.847656 -0.09375 5.925781 -0.144531 5.984375 -0.214844 C 6.046875 -0.285156 6.089844 -0.351562 6.125 -0.4375 C 6.15625 -0.515625 6.175781 -0.59375 6.175781 -0.671875 L 6.175781 -5.410156 C 6.175781 -5.476562 6.15625 -5.554688 6.125 -5.640625 C 6.089844 -5.71875 6.046875 -5.789062 5.984375 -5.855469 C 5.917969 -5.917969 5.839844 -5.96875 5.753906 -6.011719 C 5.667969 -6.054688 5.5625 -6.082031 5.445312 -6.082031 C 5.324219 -6.082031 5.210938 -6.054688 5.125 -6.011719 C 5.039062 -5.96875 4.960938 -5.917969 4.902344 -5.847656 C 4.832031 -5.777344 4.789062 -5.710938 4.753906 -5.632812 C 4.722656 -5.546875 4.710938 -5.46875 4.710938 -5.402344 L 4.710938 -2.632812 L 1.933594 -5.847656 C 1.867188 -5.917969 1.789062 -5.96875 1.695312 -6.019531 C 1.589844 -6.070312 1.488281 -6.097656 1.367188 -6.097656 C 1.246094 -6.097656 1.136719 -6.070312 1.050781 -6.027344 C 0.964844 -5.984375 0.886719 -5.933594 0.824219 -5.863281 C 0.757812 -5.796875 0.714844 -5.726562 0.679688 -5.648438 C 0.644531 -5.5625 0.636719 -5.488281 0.636719 -5.410156 L 0.636719 -0.679688 C 0.636719 -0.601562 0.644531 -0.523438 0.679688 -0.445312 C 0.714844 -0.359375 0.757812 -0.292969 0.816406 -0.222656 C 0.878906 -0.15625 0.953125 -0.09375 1.039062 -0.0507812 C 1.125 -0.0078125 1.238281 0.0078125 1.359375 0.0078125 C 1.480469 0.0078125 1.582031 -0.0078125 1.675781 -0.0507812 C 1.761719 -0.09375 1.839844 -0.144531 1.902344 -0.214844 C 1.960938 -0.285156 2.003906 -0.351562 2.039062 -0.4375 C 2.0625 -0.515625 2.082031 -0.59375 2.082031 -0.671875 Z M 2.082031 -3.492188 "/></g></g></g><g fill="#5ce1e6" fill-opacity="0.302"><g transform="translate(50.264388, 66.971157)"><g><path d="M 1.367188 0 L 3.800781 0 C 3.921875 0 4.023438 -0.015625 4.121094 -0.0585938 C 4.207031 -0.101562 4.28125 -0.15625 4.34375 -0.222656 C 4.402344 -0.292969 4.445312 -0.359375 4.480469 -0.445312 C 4.507812 -0.523438 4.523438 -0.601562 4.523438 -0.679688 C 4.523438 -0.757812 4.507812 -0.835938 4.472656 -0.921875 C 4.4375 -0.996094 4.394531 -1.066406 4.335938 -1.136719 C 4.265625 -1.195312 4.1875 -1.246094 4.101562 -1.289062 C 4.015625 -1.332031 3.914062 -1.359375 3.792969 -1.359375 L 2.191406 -1.359375 C 2.175781 -1.359375 2.148438 -1.367188 2.125 -1.382812 C 2.089844 -1.402344 2.082031 -1.4375 2.082031 -1.488281 L 2.082031 -2.382812 C 2.082031 -2.425781 2.089844 -2.460938 2.125 -2.484375 C 2.148438 -2.503906 2.175781 -2.519531 2.191406 -2.519531 L 3.34375 -2.519531 C 3.464844 -2.519531 3.570312 -2.535156 3.65625 -2.578125 C 3.742188 -2.621094 3.820312 -2.675781 3.878906 -2.742188 C 3.9375 -2.8125 3.980469 -2.882812 4.015625 -2.96875 C 4.050781 -3.042969 4.066406 -3.121094 4.066406 -3.199219 C 4.066406 -3.277344 4.050781 -3.355469 4.015625 -3.441406 C 3.980469 -3.515625 3.9375 -3.585938 3.878906 -3.65625 C 3.808594 -3.714844 3.730469 -3.765625 3.644531 -3.808594 C 3.558594 -3.851562 3.457031 -3.878906 3.335938 -3.878906 L 2.183594 -3.878906 C 2.167969 -3.878906 2.140625 -3.886719 2.117188 -3.90625 C 2.082031 -3.921875 2.074219 -3.957031 2.074219 -4.007812 L 2.074219 -4.601562 C 2.074219 -4.644531 2.082031 -4.679688 2.117188 -4.703125 C 2.140625 -4.722656 2.167969 -4.738281 2.183594 -4.738281 L 3.785156 -4.738281 C 3.90625 -4.738281 4.007812 -4.753906 4.101562 -4.796875 C 4.1875 -4.84375 4.265625 -4.894531 4.324219 -4.960938 C 4.386719 -5.023438 4.429688 -5.089844 4.464844 -5.175781 C 4.488281 -5.253906 4.507812 -5.332031 4.507812 -5.410156 C 4.507812 -5.488281 4.488281 -5.5625 4.453125 -5.648438 C 4.421875 -5.726562 4.378906 -5.796875 4.316406 -5.863281 C 4.25 -5.925781 4.171875 -5.976562 4.085938 -6.019531 C 4 -6.0625 3.894531 -6.089844 3.777344 -6.089844 L 1.339844 -6.089844 C 1.222656 -6.089844 1.109375 -6.0625 1.023438 -6.019531 C 0.9375 -5.976562 0.859375 -5.925781 0.800781 -5.855469 C 0.730469 -5.789062 0.6875 -5.71875 0.652344 -5.640625 C 0.621094 -5.554688 0.609375 -5.476562 0.609375 -5.410156 L 0.609375 -0.671875 C 0.609375 -0.585938 0.628906 -0.5 0.664062 -0.421875 C 0.695312 -0.335938 0.75 -0.265625 0.816406 -0.207031 C 0.886719 -0.136719 0.964844 -0.0859375 1.058594 -0.0507812 C 1.152344 -0.015625 1.253906 0 1.367188 0 Z M 1.367188 0 "/></g></g></g><g fill="#5ce1e6" fill-opacity="0.302"><g transform="translate(55.441641, 66.971157)"><g><path d="M 2.074219 -5.410156 C 2.074219 -5.476562 2.054688 -5.546875 2.03125 -5.632812 C 2.003906 -5.710938 1.960938 -5.789062 1.910156 -5.855469 C 1.847656 -5.925781 1.773438 -5.976562 1.6875 -6.027344 C 1.597656 -6.070312 1.488281 -6.097656 1.367188 -6.097656 C 1.246094 -6.097656 1.136719 -6.070312 1.050781 -6.027344 C 0.964844 -5.984375 0.886719 -5.933594 0.824219 -5.863281 C 0.757812 -5.796875 0.714844 -5.726562 0.679688 -5.648438 C 0.644531 -5.5625 0.636719 -5.488281 0.636719 -5.410156 L 0.636719 -0.679688 C 0.636719 -0.601562 0.644531 -0.523438 0.679688 -0.445312 C 0.714844 -0.359375 0.757812 -0.292969 0.816406 -0.222656 C 0.878906 -0.15625 0.953125 -0.09375 1.039062 -0.0507812 C 1.125 -0.0078125 1.238281 0.0078125 1.359375 0.0078125 L 3.886719 0.0078125 C 4.007812 0.0078125 4.109375 -0.0078125 4.207031 -0.0507812 C 4.292969 -0.09375 4.367188 -0.144531 4.429688 -0.214844 C 4.488281 -0.285156 4.53125 -0.351562 4.566406 -0.4375 C 4.59375 -0.515625 4.609375 -0.59375 4.609375 -0.671875 C 4.609375 -0.75 4.59375 -0.824219 4.558594 -0.910156 C 4.523438 -0.988281 4.480469 -1.058594 4.421875 -1.125 C 4.351562 -1.1875 4.273438 -1.238281 4.1875 -1.28125 C 4.101562 -1.324219 4 -1.351562 3.878906 -1.351562 L 2.183594 -1.351562 C 2.167969 -1.351562 2.140625 -1.359375 2.117188 -1.375 C 2.082031 -1.394531 2.074219 -1.425781 2.074219 -1.480469 Z M 2.074219 -5.410156 "/></g></g></g><g fill="#5ce1e6" fill-opacity="0.502"><g transform="translate(16.157253, 67.040445)"><g><path d="M 5.074219 -1.859375 C 4.886719 -1.6875 4.695312 -1.566406 4.496094 -1.488281 C 4.300781 -1.402344 4.066406 -1.367188 3.800781 -1.367188 C 3.515625 -1.367188 3.269531 -1.410156 3.0625 -1.496094 C 2.847656 -1.582031 2.664062 -1.695312 2.527344 -1.847656 C 2.382812 -2.003906 2.269531 -2.175781 2.203125 -2.382812 C 2.132812 -2.589844 2.097656 -2.8125 2.097656 -3.054688 C 2.097656 -3.285156 2.132812 -3.507812 2.203125 -3.714844 C 2.269531 -3.921875 2.382812 -4.09375 2.527344 -4.25 C 2.664062 -4.402344 2.847656 -4.523438 3.0625 -4.609375 C 3.269531 -4.695312 3.515625 -4.738281 3.800781 -4.738281 C 4.007812 -4.738281 4.214844 -4.703125 4.421875 -4.644531 C 4.625 -4.574219 4.816406 -4.472656 4.972656 -4.335938 C 4.988281 -4.316406 5.003906 -4.308594 5.023438 -4.292969 L 5.074219 -4.238281 C 5.132812 -4.179688 5.203125 -4.128906 5.289062 -4.085938 C 5.367188 -4.042969 5.46875 -4.023438 5.597656 -4.023438 C 5.71875 -4.023438 5.820312 -4.042969 5.910156 -4.085938 C 5.996094 -4.128906 6.070312 -4.179688 6.140625 -4.25 C 6.199219 -4.308594 6.242188 -4.378906 6.277344 -4.464844 C 6.3125 -4.550781 6.328125 -4.625 6.328125 -4.703125 C 6.328125 -4.867188 6.269531 -5.023438 6.148438 -5.160156 C 6.011719 -5.316406 5.847656 -5.453125 5.660156 -5.574219 C 5.46875 -5.691406 5.28125 -5.789062 5.074219 -5.863281 C 4.867188 -5.941406 4.652344 -6.003906 4.4375 -6.039062 C 4.214844 -6.070312 4.007812 -6.097656 3.800781 -6.097656 C 3.355469 -6.097656 2.933594 -6.019531 2.546875 -5.875 C 2.160156 -5.726562 1.824219 -5.519531 1.546875 -5.253906 C 1.265625 -4.988281 1.039062 -4.667969 0.886719 -4.300781 C 0.722656 -3.921875 0.644531 -3.507812 0.644531 -3.054688 C 0.644531 -2.589844 0.722656 -2.175781 0.886719 -1.796875 C 1.039062 -1.417969 1.265625 -1.101562 1.546875 -0.835938 C 1.824219 -0.566406 2.160156 -0.359375 2.546875 -0.214844 C 2.933594 -0.0703125 3.355469 0 3.800781 0 C 4.179688 0 4.539062 -0.0507812 4.894531 -0.164062 C 5.246094 -0.273438 5.5625 -0.445312 5.847656 -0.671875 C 5.96875 -0.757812 6.070312 -0.859375 6.175781 -0.972656 C 6.277344 -1.082031 6.328125 -1.222656 6.328125 -1.394531 C 6.328125 -1.46875 6.3125 -1.546875 6.277344 -1.632812 C 6.242188 -1.710938 6.199219 -1.78125 6.140625 -1.847656 C 6.070312 -1.910156 5.996094 -1.960938 5.910156 -2.003906 C 5.820312 -2.046875 5.71875 -2.074219 5.597656 -2.074219 C 5.46875 -2.074219 5.367188 -2.046875 5.289062 -2.003906 C 5.203125 -1.960938 5.132812 -1.910156 5.074219 -1.859375 Z M 5.074219 -1.859375 "/></g></g></g><g fill="#5ce1e6" fill-opacity="0.502"><g transform="translate(23.140527, 67.040445)"><g><path d="M 4.207031 -3.972656 L 2.210938 -3.972656 C 2.191406 -3.972656 2.167969 -3.980469 2.140625 -4.007812 C 2.105469 -4.023438 2.097656 -4.058594 2.097656 -4.109375 L 2.097656 -5.417969 C 2.097656 -5.496094 2.082031 -5.574219 2.046875 -5.660156 C 2.011719 -5.734375 1.96875 -5.804688 1.910156 -5.875 C 1.839844 -5.933594 1.761719 -5.984375 1.675781 -6.027344 C 1.589844 -6.070312 1.488281 -6.097656 1.367188 -6.097656 C 1.246094 -6.097656 1.136719 -6.070312 1.050781 -6.027344 C 0.964844 -5.984375 0.886719 -5.933594 0.824219 -5.863281 C 0.757812 -5.796875 0.714844 -5.726562 0.679688 -5.648438 C 0.644531 -5.5625 0.636719 -5.488281 0.636719 -5.410156 L 0.636719 -0.679688 C 0.636719 -0.601562 0.644531 -0.523438 0.679688 -0.445312 C 0.714844 -0.359375 0.757812 -0.292969 0.816406 -0.222656 C 0.878906 -0.15625 0.953125 -0.09375 1.039062 -0.0507812 C 1.125 -0.0078125 1.238281 0.0078125 1.359375 0.0078125 C 1.480469 0.0078125 1.582031 -0.0078125 1.675781 -0.0507812 C 1.761719 -0.09375 1.839844 -0.144531 1.902344 -0.214844 C 1.960938 -0.285156 2.003906 -0.351562 2.039062 -0.4375 C 2.0625 -0.515625 2.082031 -0.59375 2.082031 -0.671875 L 2.082031 -2.46875 C 2.082031 -2.511719 2.089844 -2.546875 2.125 -2.570312 C 2.148438 -2.589844 2.175781 -2.605469 2.191406 -2.605469 L 4.1875 -2.605469 C 4.207031 -2.605469 4.230469 -2.589844 4.257812 -2.570312 C 4.28125 -2.546875 4.300781 -2.511719 4.300781 -2.46875 L 4.300781 -0.671875 C 4.300781 -0.59375 4.308594 -0.515625 4.34375 -0.4375 C 4.378906 -0.351562 4.421875 -0.285156 4.480469 -0.214844 C 4.539062 -0.144531 4.617188 -0.0859375 4.703125 -0.0429688 C 4.789062 0 4.902344 0.015625 5.023438 0.015625 C 5.144531 0.015625 5.246094 0 5.339844 -0.0429688 C 5.425781 -0.0859375 5.503906 -0.136719 5.5625 -0.207031 C 5.625 -0.273438 5.667969 -0.34375 5.703125 -0.429688 C 5.726562 -0.507812 5.746094 -0.585938 5.746094 -0.664062 L 5.746094 -5.402344 C 5.746094 -5.46875 5.726562 -5.546875 5.691406 -5.632812 C 5.660156 -5.710938 5.617188 -5.777344 5.554688 -5.847656 C 5.488281 -5.910156 5.410156 -5.960938 5.324219 -6.003906 C 5.238281 -6.046875 5.132812 -6.070312 5.015625 -6.070312 C 4.894531 -6.070312 4.78125 -6.046875 4.695312 -6.003906 C 4.609375 -5.960938 4.53125 -5.910156 4.472656 -5.839844 C 4.402344 -5.769531 4.359375 -5.703125 4.324219 -5.625 C 4.292969 -5.539062 4.28125 -5.460938 4.28125 -5.390625 L 4.28125 -4.078125 C 4.28125 -4.023438 4.273438 -4 4.257812 -3.992188 C 4.238281 -3.972656 4.222656 -3.972656 4.207031 -3.972656 Z M 4.207031 -3.972656 "/></g></g></g><g fill="#5ce1e6" fill-opacity="0.502"><g transform="translate(29.556194, 67.040445)"><g><path d="M 4.171875 -5.5625 C 4.121094 -5.703125 4.015625 -5.820312 3.878906 -5.933594 C 3.730469 -6.039062 3.558594 -6.097656 3.363281 -6.097656 C 3.15625 -6.097656 2.984375 -6.039062 2.839844 -5.933594 C 2.691406 -5.832031 2.589844 -5.703125 2.535156 -5.5625 L 0.6875 -0.921875 C 0.652344 -0.84375 0.644531 -0.765625 0.644531 -0.679688 C 0.644531 -0.601562 0.652344 -0.523438 0.6875 -0.445312 C 0.722656 -0.359375 0.765625 -0.292969 0.824219 -0.230469 C 0.886719 -0.164062 0.964844 -0.113281 1.058594 -0.0703125 C 1.144531 -0.0273438 1.246094 -0.0078125 1.367188 -0.0078125 C 1.539062 -0.0078125 1.6875 -0.0507812 1.804688 -0.144531 C 1.917969 -0.230469 1.996094 -0.335938 2.046875 -0.457031 L 2.527344 -1.667969 C 2.535156 -1.6875 2.554688 -1.703125 2.570312 -1.71875 C 2.589844 -1.730469 2.613281 -1.738281 2.632812 -1.738281 L 4.085938 -1.738281 C 4.121094 -1.738281 4.152344 -1.710938 4.1875 -1.667969 L 4.660156 -0.457031 C 4.703125 -0.335938 4.78125 -0.230469 4.902344 -0.144531 C 5.015625 -0.0507812 5.160156 -0.0078125 5.339844 -0.0078125 C 5.460938 -0.0078125 5.5625 -0.0273438 5.648438 -0.0703125 C 5.734375 -0.113281 5.8125 -0.164062 5.882812 -0.230469 C 5.941406 -0.292969 5.984375 -0.359375 6.019531 -0.445312 C 6.054688 -0.523438 6.070312 -0.601562 6.070312 -0.679688 C 6.070312 -0.765625 6.054688 -0.851562 6.019531 -0.921875 Z M 3.355469 -3.722656 C 3.371094 -3.671875 3.386719 -3.628906 3.40625 -3.585938 C 3.421875 -3.535156 3.449219 -3.492188 3.464844 -3.441406 C 3.484375 -3.378906 3.507812 -3.328125 3.535156 -3.277344 C 3.550781 -3.226562 3.570312 -3.171875 3.585938 -3.128906 C 3.59375 -3.105469 3.601562 -3.085938 3.601562 -3.085938 L 3.085938 -3.085938 C 3.097656 -3.097656 3.105469 -3.105469 3.105469 -3.121094 C 3.140625 -3.226562 3.183594 -3.320312 3.226562 -3.421875 C 3.257812 -3.527344 3.300781 -3.621094 3.355469 -3.722656 Z M 3.355469 -3.722656 "/></g></g></g><g fill="#5ce1e6" fill-opacity="0.502"><g transform="translate(36.264265, 67.040445)"><g><path d="M 2.082031 -3.492188 L 4.886719 -0.25 C 4.945312 -0.171875 5.023438 -0.113281 5.125 -0.0585938 C 5.21875 -0.0078125 5.332031 0.0078125 5.453125 0.0078125 C 5.574219 0.0078125 5.675781 -0.0078125 5.761719 -0.0507812 C 5.847656 -0.09375 5.925781 -0.144531 5.984375 -0.214844 C 6.046875 -0.285156 6.089844 -0.351562 6.125 -0.4375 C 6.15625 -0.515625 6.175781 -0.59375 6.175781 -0.671875 L 6.175781 -5.410156 C 6.175781 -5.476562 6.15625 -5.554688 6.125 -5.640625 C 6.089844 -5.71875 6.046875 -5.789062 5.984375 -5.855469 C 5.917969 -5.917969 5.839844 -5.96875 5.753906 -6.011719 C 5.667969 -6.054688 5.5625 -6.082031 5.445312 -6.082031 C 5.324219 -6.082031 5.210938 -6.054688 5.125 -6.011719 C 5.039062 -5.96875 4.960938 -5.917969 4.902344 -5.847656 C 4.832031 -5.777344 4.789062 -5.710938 4.753906 -5.632812 C 4.722656 -5.546875 4.710938 -5.46875 4.710938 -5.402344 L 4.710938 -2.632812 L 1.933594 -5.847656 C 1.867188 -5.917969 1.789062 -5.96875 1.695312 -6.019531 C 1.589844 -6.070312 1.488281 -6.097656 1.367188 -6.097656 C 1.246094 -6.097656 1.136719 -6.070312 1.050781 -6.027344 C 0.964844 -5.984375 0.886719 -5.933594 0.824219 -5.863281 C 0.757812 -5.796875 0.714844 -5.726562 0.679688 -5.648438 C 0.644531 -5.5625 0.636719 -5.488281 0.636719 -5.410156 L 0.636719 -0.679688 C 0.636719 -0.601562 0.644531 -0.523438 0.679688 -0.445312 C 0.714844 -0.359375 0.757812 -0.292969 0.816406 -0.222656 C 0.878906 -0.15625 0.953125 -0.09375 1.039062 -0.0507812 C 1.125 -0.0078125 1.238281 0.0078125 1.359375 0.0078125 C 1.480469 0.0078125 1.582031 -0.0078125 1.675781 -0.0507812 C 1.761719 -0.09375 1.839844 -0.144531 1.902344 -0.214844 C 1.960938 -0.285156 2.003906 -0.351562 2.039062 -0.4375 C 2.0625 -0.515625 2.082031 -0.59375 2.082031 -0.671875 Z M 2.082031 -3.492188 "/></g></g></g><g fill="#5ce1e6" fill-opacity="0.502"><g transform="translate(43.101342, 67.040445)"><g><path d="M 2.082031 -3.492188 L 4.886719 -0.25 C 4.945312 -0.171875 5.023438 -0.113281 5.125 -0.0585938 C 5.21875 -0.0078125 5.332031 0.0078125 5.453125 0.0078125 C 5.574219 0.0078125 5.675781 -0.0078125 5.761719 -0.0507812 C 5.847656 -0.09375 5.925781 -0.144531 5.984375 -0.214844 C 6.046875 -0.285156 6.089844 -0.351562 6.125 -0.4375 C 6.15625 -0.515625 6.175781 -0.59375 6.175781 -0.671875 L 6.175781 -5.410156 C 6.175781 -5.476562 6.15625 -5.554688 6.125 -5.640625 C 6.089844 -5.71875 6.046875 -5.789062 5.984375 -5.855469 C 5.917969 -5.917969 5.839844 -5.96875 5.753906 -6.011719 C 5.667969 -6.054688 5.5625 -6.082031 5.445312 -6.082031 C 5.324219 -6.082031 5.210938 -6.054688 5.125 -6.011719 C 5.039062 -5.96875 4.960938 -5.917969 4.902344 -5.847656 C 4.832031 -5.777344 4.789062 -5.710938 4.753906 -5.632812 C 4.722656 -5.546875 4.710938 -5.46875 4.710938 -5.402344 L 4.710938 -2.632812 L 1.933594 -5.847656 C 1.867188 -5.917969 1.789062 -5.96875 1.695312 -6.019531 C 1.589844 -6.070312 1.488281 -6.097656 1.367188 -6.097656 C 1.246094 -6.097656 1.136719 -6.070312 1.050781 -6.027344 C 0.964844 -5.984375 0.886719 -5.933594 0.824219 -5.863281 C 0.757812 -5.796875 0.714844 -5.726562 0.679688 -5.648438 C 0.644531 -5.5625 0.636719 -5.488281 0.636719 -5.410156 L 0.636719 -0.679688 C 0.636719 -0.601562 0.644531 -0.523438 0.679688 -0.445312 C 0.714844 -0.359375 0.757812 -0.292969 0.816406 -0.222656 C 0.878906 -0.15625 0.953125 -0.09375 1.039062 -0.0507812 C 1.125 -0.0078125 1.238281 0.0078125 1.359375 0.0078125 C 1.480469 0.0078125 1.582031 -0.0078125 1.675781 -0.0507812 C 1.761719 -0.09375 1.839844 -0.144531 1.902344 -0.214844 C 1.960938 -0.285156 2.003906 -0.351562 2.039062 -0.4375 C 2.0625 -0.515625 2.082031 -0.59375 2.082031 -0.671875 Z M 2.082031 -3.492188 "/></g></g></g><g fill="#5ce1e6" fill-opacity="0.502"><g transform="translate(49.938419, 67.040445)"><g><path d="M 1.367188 0 L 3.800781 0 C 3.921875 0 4.023438 -0.015625 4.121094 -0.0585938 C 4.207031 -0.101562 4.28125 -0.15625 4.34375 -0.222656 C 4.402344 -0.292969 4.445312 -0.359375 4.480469 -0.445312 C 4.507812 -0.523438 4.523438 -0.601562 4.523438 -0.679688 C 4.523438 -0.757812 4.507812 -0.835938 4.472656 -0.921875 C 4.4375 -0.996094 4.394531 -1.066406 4.335938 -1.136719 C 4.265625 -1.195312 4.1875 -1.246094 4.101562 -1.289062 C 4.015625 -1.332031 3.914062 -1.359375 3.792969 -1.359375 L 2.191406 -1.359375 C 2.175781 -1.359375 2.148438 -1.367188 2.125 -1.382812 C 2.089844 -1.402344 2.082031 -1.4375 2.082031 -1.488281 L 2.082031 -2.382812 C 2.082031 -2.425781 2.089844 -2.460938 2.125 -2.484375 C 2.148438 -2.503906 2.175781 -2.519531 2.191406 -2.519531 L 3.34375 -2.519531 C 3.464844 -2.519531 3.570312 -2.535156 3.65625 -2.578125 C 3.742188 -2.621094 3.820312 -2.675781 3.878906 -2.742188 C 3.9375 -2.8125 3.980469 -2.882812 4.015625 -2.96875 C 4.050781 -3.042969 4.066406 -3.121094 4.066406 -3.199219 C 4.066406 -3.277344 4.050781 -3.355469 4.015625 -3.441406 C 3.980469 -3.515625 3.9375 -3.585938 3.878906 -3.65625 C 3.808594 -3.714844 3.730469 -3.765625 3.644531 -3.808594 C 3.558594 -3.851562 3.457031 -3.878906 3.335938 -3.878906 L 2.183594 -3.878906 C 2.167969 -3.878906 2.140625 -3.886719 2.117188 -3.90625 C 2.082031 -3.921875 2.074219 -3.957031 2.074219 -4.007812 L 2.074219 -4.601562 C 2.074219 -4.644531 2.082031 -4.679688 2.117188 -4.703125 C 2.140625 -4.722656 2.167969 -4.738281 2.183594 -4.738281 L 3.785156 -4.738281 C 3.90625 -4.738281 4.007812 -4.753906 4.101562 -4.796875 C 4.1875 -4.84375 4.265625 -4.894531 4.324219 -4.960938 C 4.386719 -5.023438 4.429688 -5.089844 4.464844 -5.175781 C 4.488281 -5.253906 4.507812 -5.332031 4.507812 -5.410156 C 4.507812 -5.488281 4.488281 -5.5625 4.453125 -5.648438 C 4.421875 -5.726562 4.378906 -5.796875 4.316406 -5.863281 C 4.25 -5.925781 4.171875 -5.976562 4.085938 -6.019531 C 4 -6.0625 3.894531 -6.089844 3.777344 -6.089844 L 1.339844 -6.089844 C 1.222656 -6.089844 1.109375 -6.0625 1.023438 -6.019531 C 0.9375 -5.976562 0.859375 -5.925781 0.800781 -5.855469 C 0.730469 -5.789062 0.6875 -5.71875 0.652344 -5.640625 C 0.621094 -5.554688 0.609375 -5.476562 0.609375 -5.410156 L 0.609375 -0.671875 C 0.609375 -0.585938 0.628906 -0.5 0.664062 -0.421875 C 0.695312 -0.335938 0.75 -0.265625 0.816406 -0.207031 C 0.886719 -0.136719 0.964844 -0.0859375 1.058594 -0.0507812 C 1.152344 -0.015625 1.253906 0 1.367188 0 Z M 1.367188 0 "/></g></g></g><g fill="#5ce1e6" fill-opacity="0.502"><g transform="translate(55.115672, 67.040445)"><g><path d="M 2.074219 -5.410156 C 2.074219 -5.476562 2.054688 -5.546875 2.03125 -5.632812 C 2.003906 -5.710938 1.960938 -5.789062 1.910156 -5.855469 C 1.847656 -5.925781 1.773438 -5.976562 1.6875 -6.027344 C 1.597656 -6.070312 1.488281 -6.097656 1.367188 -6.097656 C 1.246094 -6.097656 1.136719 -6.070312 1.050781 -6.027344 C 0.964844 -5.984375 0.886719 -5.933594 0.824219 -5.863281 C 0.757812 -5.796875 0.714844 -5.726562 0.679688 -5.648438 C 0.644531 -5.5625 0.636719 -5.488281 0.636719 -5.410156 L 0.636719 -0.679688 C 0.636719 -0.601562 0.644531 -0.523438 0.679688 -0.445312 C 0.714844 -0.359375 0.757812 -0.292969 0.816406 -0.222656 C 0.878906 -0.15625 0.953125 -0.09375 1.039062 -0.0507812 C 1.125 -0.0078125 1.238281 0.0078125 1.359375 0.0078125 L 3.886719 0.0078125 C 4.007812 0.0078125 4.109375 -0.0078125 4.207031 -0.0507812 C 4.292969 -0.09375 4.367188 -0.144531 4.429688 -0.214844 C 4.488281 -0.285156 4.53125 -0.351562 4.566406 -0.4375 C 4.59375 -0.515625 4.609375 -0.59375 4.609375 -0.671875 C 4.609375 -0.75 4.59375 -0.824219 4.558594 -0.910156 C 4.523438 -0.988281 4.480469 -1.058594 4.421875 -1.125 C 4.351562 -1.1875 4.273438 -1.238281 4.1875 -1.28125 C 4.101562 -1.324219 4 -1.351562 3.878906 -1.351562 L 2.183594 -1.351562 C 2.167969 -1.351562 2.140625 -1.359375 2.117188 -1.375 C 2.082031 -1.394531 2.074219 -1.425781 2.074219 -1.480469 Z M 2.074219 -5.410156 "/></g></g></g><g fill="#ffffff" fill-opacity="1"><g transform="translate(15.831284, 67.109731)"><g><path d="M 5.074219 -1.859375 C 4.886719 -1.6875 4.695312 -1.566406 4.496094 -1.488281 C 4.300781 -1.402344 4.066406 -1.367188 3.800781 -1.367188 C 3.515625 -1.367188 3.269531 -1.410156 3.0625 -1.496094 C 2.847656 -1.582031 2.664062 -1.695312 2.527344 -1.847656 C 2.382812 -2.003906 2.269531 -2.175781 2.203125 -2.382812 C 2.132812 -2.589844 2.097656 -2.8125 2.097656 -3.054688 C 2.097656 -3.285156 2.132812 -3.507812 2.203125 -3.714844 C 2.269531 -3.921875 2.382812 -4.09375 2.527344 -4.25 C 2.664062 -4.402344 2.847656 -4.523438 3.0625 -4.609375 C 3.269531 -4.695312 3.515625 -4.738281 3.800781 -4.738281 C 4.007812 -4.738281 4.214844 -4.703125 4.421875 -4.644531 C 4.625 -4.574219 4.816406 -4.472656 4.972656 -4.335938 C 4.988281 -4.316406 5.003906 -4.308594 5.023438 -4.292969 L 5.074219 -4.238281 C 5.132812 -4.179688 5.203125 -4.128906 5.289062 -4.085938 C 5.367188 -4.042969 5.46875 -4.023438 5.597656 -4.023438 C 5.71875 -4.023438 5.820312 -4.042969 5.910156 -4.085938 C 5.996094 -4.128906 6.070312 -4.179688 6.140625 -4.25 C 6.199219 -4.308594 6.242188 -4.378906 6.277344 -4.464844 C 6.3125 -4.550781 6.328125 -4.625 6.328125 -4.703125 C 6.328125 -4.867188 6.269531 -5.023438 6.148438 -5.160156 C 6.011719 -5.316406 5.847656 -5.453125 5.660156 -5.574219 C 5.46875 -5.691406 5.28125 -5.789062 5.074219 -5.863281 C 4.867188 -5.941406 4.652344 -6.003906 4.4375 -6.039062 C 4.214844 -6.070312 4.007812 -6.097656 3.800781 -6.097656 C 3.355469 -6.097656 2.933594 -6.019531 2.546875 -5.875 C 2.160156 -5.726562 1.824219 -5.519531 1.546875 -5.253906 C 1.265625 -4.988281 1.039062 -4.667969 0.886719 -4.300781 C 0.722656 -3.921875 0.644531 -3.507812 0.644531 -3.054688 C 0.644531 -2.589844 0.722656 -2.175781 0.886719 -1.796875 C 1.039062 -1.417969 1.265625 -1.101562 1.546875 -0.835938 C 1.824219 -0.566406 2.160156 -0.359375 2.546875 -0.214844 C 2.933594 -0.0703125 3.355469 0 3.800781 0 C 4.179688 0 4.539062 -0.0507812 4.894531 -0.164062 C 5.246094 -0.273438 5.5625 -0.445312 5.847656 -0.671875 C 5.96875 -0.757812 6.070312 -0.859375 6.175781 -0.972656 C 6.277344 -1.082031 6.328125 -1.222656 6.328125 -1.394531 C 6.328125 -1.46875 6.3125 -1.546875 6.277344 -1.632812 C 6.242188 -1.710938 6.199219 -1.78125 6.140625 -1.847656 C 6.070312 -1.910156 5.996094 -1.960938 5.910156 -2.003906 C 5.820312 -2.046875 5.71875 -2.074219 5.597656 -2.074219 C 5.46875 -2.074219 5.367188 -2.046875 5.289062 -2.003906 C 5.203125 -1.960938 5.132812 -1.910156 5.074219 -1.859375 Z M 5.074219 -1.859375 "/></g></g></g><g fill="#ffffff" fill-opacity="1"><g transform="translate(22.814558, 67.109731)"><g><path d="M 4.207031 -3.972656 L 2.210938 -3.972656 C 2.191406 -3.972656 2.167969 -3.980469 2.140625 -4.007812 C 2.105469 -4.023438 2.097656 -4.058594 2.097656 -4.109375 L 2.097656 -5.417969 C 2.097656 -5.496094 2.082031 -5.574219 2.046875 -5.660156 C 2.011719 -5.734375 1.96875 -5.804688 1.910156 -5.875 C 1.839844 -5.933594 1.761719 -5.984375 1.675781 -6.027344 C 1.589844 -6.070312 1.488281 -6.097656 1.367188 -6.097656 C 1.246094 -6.097656 1.136719 -6.070312 1.050781 -6.027344 C 0.964844 -5.984375 0.886719 -5.933594 0.824219 -5.863281 C 0.757812 -5.796875 0.714844 -5.726562 0.679688 -5.648438 C 0.644531 -5.5625 0.636719 -5.488281 0.636719 -5.410156 L 0.636719 -0.679688 C 0.636719 -0.601562 0.644531 -0.523438 0.679688 -0.445312 C 0.714844 -0.359375 0.757812 -0.292969 0.816406 -0.222656 C 0.878906 -0.15625 0.953125 -0.09375 1.039062 -0.0507812 C 1.125 -0.0078125 1.238281 0.0078125 1.359375 0.0078125 C 1.480469 0.0078125 1.582031 -0.0078125 1.675781 -0.0507812 C 1.761719 -0.09375 1.839844 -0.144531 1.902344 -0.214844 C 1.960938 -0.285156 2.003906 -0.351562 2.039062 -0.4375 C 2.0625 -0.515625 2.082031 -0.59375 2.082031 -0.671875 L 2.082031 -2.46875 C 2.082031 -2.511719 2.089844 -2.546875 2.125 -2.570312 C 2.148438 -2.589844 2.175781 -2.605469 2.191406 -2.605469 L 4.1875 -2.605469 C 4.207031 -2.605469 4.230469 -2.589844 4.257812 -2.570312 C 4.28125 -2.546875 4.300781 -2.511719 4.300781 -2.46875 L 4.300781 -0.671875 C 4.300781 -0.59375 4.308594 -0.515625 4.34375 -0.4375 C 4.378906 -0.351562 4.421875 -0.285156 4.480469 -0.214844 C 4.539062 -0.144531 4.617188 -0.0859375 4.703125 -0.0429688 C 4.789062 0 4.902344 0.015625 5.023438 0.015625 C 5.144531 0.015625 5.246094 0 5.339844 -0.0429688 C 5.425781 -0.0859375 5.503906 -0.136719 5.5625 -0.207031 C 5.625 -0.273438 5.667969 -0.34375 5.703125 -0.429688 C 5.726562 -0.507812 5.746094 -0.585938 5.746094 -0.664062 L 5.746094 -5.402344 C 5.746094 -5.46875 5.726562 -5.546875 5.691406 -5.632812 C 5.660156 -5.710938 5.617188 -5.777344 5.554688 -5.847656 C 5.488281 -5.910156 5.410156 -5.960938 5.324219 -6.003906 C 5.238281 -6.046875 5.132812 -6.070312 5.015625 -6.070312 C 4.894531 -6.070312 4.78125 -6.046875 4.695312 -6.003906 C 4.609375 -5.960938 4.53125 -5.910156 4.472656 -5.839844 C 4.402344 -5.769531 4.359375 -5.703125 4.324219 -5.625 C 4.292969 -5.539062 4.28125 -5.460938 4.28125 -5.390625 L 4.28125 -4.078125 C 4.28125 -4.023438 4.273438 -4 4.257812 -3.992188 C 4.238281 -3.972656 4.222656 -3.972656 4.207031 -3.972656 Z M 4.207031 -3.972656 "/></g></g></g><g fill="#ffffff" fill-opacity="1"><g transform="translate(29.230225, 67.109731)"><g><path d="M 4.171875 -5.5625 C 4.121094 -5.703125 4.015625 -5.820312 3.878906 -5.933594 C 3.730469 -6.039062 3.558594 -6.097656 3.363281 -6.097656 C 3.15625 -6.097656 2.984375 -6.039062 2.839844 -5.933594 C 2.691406 -5.832031 2.589844 -5.703125 2.535156 -5.5625 L 0.6875 -0.921875 C 0.652344 -0.84375 0.644531 -0.765625 0.644531 -0.679688 C 0.644531 -0.601562 0.652344 -0.523438 0.6875 -0.445312 C 0.722656 -0.359375 0.765625 -0.292969 0.824219 -0.230469 C 0.886719 -0.164062 0.964844 -0.113281 1.058594 -0.0703125 C 1.144531 -0.0273438 1.246094 -0.0078125 1.367188 -0.0078125 C 1.539062 -0.0078125 1.6875 -0.0507812 1.804688 -0.144531 C 1.917969 -0.230469 1.996094 -0.335938 2.046875 -0.457031 L 2.527344 -1.667969 C 2.535156 -1.6875 2.554688 -1.703125 2.570312 -1.71875 C 2.589844 -1.730469 2.613281 -1.738281 2.632812 -1.738281 L 4.085938 -1.738281 C 4.121094 -1.738281 4.152344 -1.710938 4.1875 -1.667969 L 4.660156 -0.457031 C 4.703125 -0.335938 4.78125 -0.230469 4.902344 -0.144531 C 5.015625 -0.0507812 5.160156 -0.0078125 5.339844 -0.0078125 C 5.460938 -0.0078125 5.5625 -0.0273438 5.648438 -0.0703125 C 5.734375 -0.113281 5.8125 -0.164062 5.882812 -0.230469 C 5.941406 -0.292969 5.984375 -0.359375 6.019531 -0.445312 C 6.054688 -0.523438 6.070312 -0.601562 6.070312 -0.679688 C 6.070312 -0.765625 6.054688 -0.851562 6.019531 -0.921875 Z M 3.355469 -3.722656 C 3.371094 -3.671875 3.386719 -3.628906 3.40625 -3.585938 C 3.421875 -3.535156 3.449219 -3.492188 3.464844 -3.441406 C 3.484375 -3.378906 3.507812 -3.328125 3.535156 -3.277344 C 3.550781 -3.226562 3.570312 -3.171875 3.585938 -3.128906 C 3.59375 -3.105469 3.601562 -3.085938 3.601562 -3.085938 L 3.085938 -3.085938 C 3.097656 -3.097656 3.105469 -3.105469 3.105469 -3.121094 C 3.140625 -3.226562 3.183594 -3.320312 3.226562 -3.421875 C 3.257812 -3.527344 3.300781 -3.621094 3.355469 -3.722656 Z M 3.355469 -3.722656 "/></g></g></g><g fill="#ffffff" fill-opacity="1"><g transform="translate(35.938296, 67.109731)"><g><path d="M 2.082031 -3.492188 L 4.886719 -0.25 C 4.945312 -0.171875 5.023438 -0.113281 5.125 -0.0585938 C 5.21875 -0.0078125 5.332031 0.0078125 5.453125 0.0078125 C 5.574219 0.0078125 5.675781 -0.0078125 5.761719 -0.0507812 C 5.847656 -0.09375 5.925781 -0.144531 5.984375 -0.214844 C 6.046875 -0.285156 6.089844 -0.351562 6.125 -0.4375 C 6.15625 -0.515625 6.175781 -0.59375 6.175781 -0.671875 L 6.175781 -5.410156 C 6.175781 -5.476562 6.15625 -5.554688 6.125 -5.640625 C 6.089844 -5.71875 6.046875 -5.789062 5.984375 -5.855469 C 5.917969 -5.917969 5.839844 -5.96875 5.753906 -6.011719 C 5.667969 -6.054688 5.5625 -6.082031 5.445312 -6.082031 C 5.324219 -6.082031 5.210938 -6.054688 5.125 -6.011719 C 5.039062 -5.96875 4.960938 -5.917969 4.902344 -5.847656 C 4.832031 -5.777344 4.789062 -5.710938 4.753906 -5.632812 C 4.722656 -5.546875 4.710938 -5.46875 4.710938 -5.402344 L 4.710938 -2.632812 L 1.933594 -5.847656 C 1.867188 -5.917969 1.789062 -5.96875 1.695312 -6.019531 C 1.589844 -6.070312 1.488281 -6.097656 1.367188 -6.097656 C 1.246094 -6.097656 1.136719 -6.070312 1.050781 -6.027344 C 0.964844 -5.984375 0.886719 -5.933594 0.824219 -5.863281 C 0.757812 -5.796875 0.714844 -5.726562 0.679688 -5.648438 C 0.644531 -5.5625 0.636719 -5.488281 0.636719 -5.410156 L 0.636719 -0.679688 C 0.636719 -0.601562 0.644531 -0.523438 0.679688 -0.445312 C 0.714844 -0.359375 0.757812 -0.292969 0.816406 -0.222656 C 0.878906 -0.15625 0.953125 -0.09375 1.039062 -0.0507812 C 1.125 -0.0078125 1.238281 0.0078125 1.359375 0.0078125 C 1.480469 0.0078125 1.582031 -0.0078125 1.675781 -0.0507812 C 1.761719 -0.09375 1.839844 -0.144531 1.902344 -0.214844 C 1.960938 -0.285156 2.003906 -0.351562 2.039062 -0.4375 C 2.0625 -0.515625 2.082031 -0.59375 2.082031 -0.671875 Z M 2.082031 -3.492188 "/></g></g></g><g fill="#ffffff" fill-opacity="1"><g transform="translate(42.775373, 67.109731)"><g><path d="M 2.082031 -3.492188 L 4.886719 -0.25 C 4.945312 -0.171875 5.023438 -0.113281 5.125 -0.0585938 C 5.21875 -0.0078125 5.332031 0.0078125 5.453125 0.0078125 C 5.574219 0.0078125 5.675781 -0.0078125 5.761719 -0.0507812 C 5.847656 -0.09375 5.925781 -0.144531 5.984375 -0.214844 C 6.046875 -0.285156 6.089844 -0.351562 6.125 -0.4375 C 6.15625 -0.515625 6.175781 -0.59375 6.175781 -0.671875 L 6.175781 -5.410156 C 6.175781 -5.476562 6.15625 -5.554688 6.125 -5.640625 C 6.089844 -5.71875 6.046875 -5.789062 5.984375 -5.855469 C 5.917969 -5.917969 5.839844 -5.96875 5.753906 -6.011719 C 5.667969 -6.054688 5.5625 -6.082031 5.445312 -6.082031 C 5.324219 -6.082031 5.210938 -6.054688 5.125 -6.011719 C 5.039062 -5.96875 4.960938 -5.917969 4.902344 -5.847656 C 4.832031 -5.777344 4.789062 -5.710938 4.753906 -5.632812 C 4.722656 -5.546875 4.710938 -5.46875 4.710938 -5.402344 L 4.710938 -2.632812 L 1.933594 -5.847656 C 1.867188 -5.917969 1.789062 -5.96875 1.695312 -6.019531 C 1.589844 -6.070312 1.488281 -6.097656 1.367188 -6.097656 C 1.246094 -6.097656 1.136719 -6.070312 1.050781 -6.027344 C 0.964844 -5.984375 0.886719 -5.933594 0.824219 -5.863281 C 0.757812 -5.796875 0.714844 -5.726562 0.679688 -5.648438 C 0.644531 -5.5625 0.636719 -5.488281 0.636719 -5.410156 L 0.636719 -0.679688 C 0.636719 -0.601562 0.644531 -0.523438 0.679688 -0.445312 C 0.714844 -0.359375 0.757812 -0.292969 0.816406 -0.222656 C 0.878906 -0.15625 0.953125 -0.09375 1.039062 -0.0507812 C 1.125 -0.0078125 1.238281 0.0078125 1.359375 0.0078125 C 1.480469 0.0078125 1.582031 -0.0078125 1.675781 -0.0507812 C 1.761719 -0.09375 1.839844 -0.144531 1.902344 -0.214844 C 1.960938 -0.285156 2.003906 -0.351562 2.039062 -0.4375 C 2.0625 -0.515625 2.082031 -0.59375 2.082031 -0.671875 Z M 2.082031 -3.492188 "/></g></g></g><g fill="#ffffff" fill-opacity="1"><g transform="translate(49.61245, 67.109731)"><g><path d="M 1.367188 0 L 3.800781 0 C 3.921875 0 4.023438 -0.015625 4.121094 -0.0585938 C 4.207031 -0.101562 4.28125 -0.15625 4.34375 -0.222656 C 4.402344 -0.292969 4.445312 -0.359375 4.480469 -0.445312 C 4.507812 -0.523438 4.523438 -0.601562 4.523438 -0.679688 C 4.523438 -0.757812 4.507812 -0.835938 4.472656 -0.921875 C 4.4375 -0.996094 4.394531 -1.066406 4.335938 -1.136719 C 4.265625 -1.195312 4.1875 -1.246094 4.101562 -1.289062 C 4.015625 -1.332031 3.914062 -1.359375 3.792969 -1.359375 L 2.191406 -1.359375 C 2.175781 -1.359375 2.148438 -1.367188 2.125 -1.382812 C 2.089844 -1.402344 2.082031 -1.4375 2.082031 -1.488281 L 2.082031 -2.382812 C 2.082031 -2.425781 2.089844 -2.460938 2.125 -2.484375 C 2.148438 -2.503906 2.175781 -2.519531 2.191406 -2.519531 L 3.34375 -2.519531 C 3.464844 -2.519531 3.570312 -2.535156 3.65625 -2.578125 C 3.742188 -2.621094 3.820312 -2.675781 3.878906 -2.742188 C 3.9375 -2.8125 3.980469 -2.882812 4.015625 -2.96875 C 4.050781 -3.042969 4.066406 -3.121094 4.066406 -3.199219 C 4.066406 -3.277344 4.050781 -3.355469 4.015625 -3.441406 C 3.980469 -3.515625 3.9375 -3.585938 3.878906 -3.65625 C 3.808594 -3.714844 3.730469 -3.765625 3.644531 -3.808594 C 3.558594 -3.851562 3.457031 -3.878906 3.335938 -3.878906 L 2.183594 -3.878906 C 2.167969 -3.878906 2.140625 -3.886719 2.117188 -3.90625 C 2.082031 -3.921875 2.074219 -3.957031 2.074219 -4.007812 L 2.074219 -4.601562 C 2.074219 -4.644531 2.082031 -4.679688 2.117188 -4.703125 C 2.140625 -4.722656 2.167969 -4.738281 2.183594 -4.738281 L 3.785156 -4.738281 C 3.90625 -4.738281 4.007812 -4.753906 4.101562 -4.796875 C 4.1875 -4.84375 4.265625 -4.894531 4.324219 -4.960938 C 4.386719 -5.023438 4.429688 -5.089844 4.464844 -5.175781 C 4.488281 -5.253906 4.507812 -5.332031 4.507812 -5.410156 C 4.507812 -5.488281 4.488281 -5.5625 4.453125 -5.648438 C 4.421875 -5.726562 4.378906 -5.796875 4.316406 -5.863281 C 4.25 -5.925781 4.171875 -5.976562 4.085938 -6.019531 C 4 -6.0625 3.894531 -6.089844 3.777344 -6.089844 L 1.339844 -6.089844 C 1.222656 -6.089844 1.109375 -6.0625 1.023438 -6.019531 C 0.9375 -5.976562 0.859375 -5.925781 0.800781 -5.855469 C 0.730469 -5.789062 0.6875 -5.71875 0.652344 -5.640625 C 0.621094 -5.554688 0.609375 -5.476562 0.609375 -5.410156 L 0.609375 -0.671875 C 0.609375 -0.585938 0.628906 -0.5 0.664062 -0.421875 C 0.695312 -0.335938 0.75 -0.265625 0.816406 -0.207031 C 0.886719 -0.136719 0.964844 -0.0859375 1.058594 -0.0507812 C 1.152344 -0.015625 1.253906 0 1.367188 0 Z M 1.367188 0 "/></g></g></g><g fill="#ffffff" fill-opacity="1"><g transform="translate(54.789703, 67.109731)"><g><path d="M 2.074219 -5.410156 C 2.074219 -5.476562 2.054688 -5.546875 2.03125 -5.632812 C 2.003906 -5.710938 1.960938 -5.789062 1.910156 -5.855469 C 1.847656 -5.925781 1.773438 -5.976562 1.6875 -6.027344 C 1.597656 -6.070312 1.488281 -6.097656 1.367188 -6.097656 C 1.246094 -6.097656 1.136719 -6.070312 1.050781 -6.027344 C 0.964844 -5.984375 0.886719 -5.933594 0.824219 -5.863281 C 0.757812 -5.796875 0.714844 -5.726562 0.679688 -5.648438 C 0.644531 -5.5625 0.636719 -5.488281 0.636719 -5.410156 L 0.636719 -0.679688 C 0.636719 -0.601562 0.644531 -0.523438 0.679688 -0.445312 C 0.714844 -0.359375 0.757812 -0.292969 0.816406 -0.222656 C 0.878906 -0.15625 0.953125 -0.09375 1.039062 -0.0507812 C 1.125 -0.0078125 1.238281 0.0078125 1.359375 0.0078125 L 3.886719 0.0078125 C 4.007812 0.0078125 4.109375 -0.0078125 4.207031 -0.0507812 C 4.292969 -0.09375 4.367188 -0.144531 4.429688 -0.214844 C 4.488281 -0.285156 4.53125 -0.351562 4.566406 -0.4375 C 4.59375 -0.515625 4.609375 -0.59375 4.609375 -0.671875 C 4.609375 -0.75 4.59375 -0.824219 4.558594 -0.910156 C 4.523438 -0.988281 4.480469 -1.058594 4.421875 -1.125 C 4.351562 -1.1875 4.273438 -1.238281 4.1875 -1.28125 C 4.101562 -1.324219 4 -1.351562 3.878906 -1.351562 L 2.183594 -1.351562 C 2.167969 -1.351562 2.140625 -1.359375 2.117188 -1.375 C 2.082031 -1.394531 2.074219 -1.425781 2.074219 -1.480469 Z M 2.074219 -5.410156 "/></g></g></g></svg>